ISO-10303-21;
HEADER;
/* Generated by software containing ST-Developer
 * from STEP Tools, Inc. (www.steptools.com) 
 */
/* OPTION: using custom renumber hook */

FILE_DESCRIPTION(
/* description */ ('STEP AP242 Edition 2',
'CAx-IF Rec.Pracs.---Representation and Presentation of Product Manufa
cturing Information (PMI)---4.0---2014-10-13',
'CAx-IF Rec.Pracs.---3D Tessellated Geometry---0.4---2014-09-14','2;1',
'CAx-IF Rec.Pracs.---User Defined Attributes---1.5---2016-08-15'),
/* implementation_level */ '2;1');

FILE_NAME(
/* name */ 'Part Studio 2 - Part 2',
/* time_stamp */ '2026-08-03T18:52:20Z',
/* author */ (''),
/* organization */ (''),
/* preprocessor_version */ 'ST-DEVELOPER v20',
/* originating_system */ 'ONSHAPE BY PTC INC, 1.218',
/* authorisation */ '  ');

FILE_SCHEMA (('AP242_MANAGED_MODEL_BASED_3D_ENGINEERING_MIM_LF { 1 0 10303 442 3 1 4 }'));
ENDSEC;

DATA;
#10=SHAPE_REPRESENTATION_RELATIONSHIP('','',#1412,#11);
#11=ADVANCED_BREP_SHAPE_REPRESENTATION('',(#1410),#2356);
#12=LINE('',#1980,#137);
#13=LINE('',#1984,#138);
#14=LINE('',#1988,#139);
#15=LINE('',#1994,#140);
#16=LINE('',#2000,#141);
#17=LINE('',#2007,#142);
#18=LINE('',#2011,#143);
#19=LINE('',#2015,#144);
#20=LINE('',#2021,#145);
#21=LINE('',#2027,#146);
#22=LINE('',#2034,#147);
#23=LINE('',#2038,#148);
#24=LINE('',#2042,#149);
#25=LINE('',#2048,#150);
#26=LINE('',#2054,#151);
#27=LINE('',#2058,#152);
#28=LINE('',#2062,#153);
#29=LINE('',#2064,#154);
#30=LINE('',#2068,#155);
#31=LINE('',#2072,#156);
#32=LINE('',#2095,#157);
#33=LINE('',#2100,#158);
#34=LINE('',#2104,#159);
#35=LINE('',#2108,#160);
#36=LINE('',#2111,#161);
#37=LINE('',#2114,#162);
#38=LINE('',#2116,#163);
#39=LINE('',#2118,#164);
#40=LINE('',#2119,#165);
#41=LINE('',#2122,#166);
#42=LINE('',#2124,#167);
#43=LINE('',#2126,#168);
#44=LINE('',#2127,#169);
#45=LINE('',#2130,#170);
#46=LINE('',#2132,#171);
#47=LINE('',#2134,#172);
#48=LINE('',#2135,#173);
#49=LINE('',#2138,#174);
#50=LINE('',#2140,#175);
#51=LINE('',#2142,#176);
#52=LINE('',#2144,#177);
#53=LINE('',#2145,#178);
#54=LINE('',#2148,#179);
#55=LINE('',#2150,#180);
#56=LINE('',#2152,#181);
#57=LINE('',#2153,#182);
#58=LINE('',#2156,#183);
#59=LINE('',#2158,#184);
#60=LINE('',#2160,#185);
#61=LINE('',#2161,#186);
#62=LINE('',#2164,#187);
#63=LINE('',#2166,#188);
#64=LINE('',#2168,#189);
#65=LINE('',#2179,#190);
#66=LINE('',#2182,#191);
#67=LINE('',#2183,#192);
#68=LINE('',#2185,#193);
#69=LINE('',#2187,#194);
#70=LINE('',#2189,#195);
#71=LINE('',#2191,#196);
#72=LINE('',#2193,#197);
#73=LINE('',#2195,#198);
#74=LINE('',#2198,#199);
#75=LINE('',#2199,#200);
#76=LINE('',#2201,#201);
#77=LINE('',#2203,#202);
#78=LINE('',#2205,#203);
#79=LINE('',#2207,#204);
#80=LINE('',#2209,#205);
#81=LINE('',#2211,#206);
#82=LINE('',#2213,#207);
#83=LINE('',#2216,#208);
#84=LINE('',#2217,#209);
#85=LINE('',#2219,#210);
#86=LINE('',#2221,#211);
#87=LINE('',#2223,#212);
#88=LINE('',#2225,#213);
#89=LINE('',#2227,#214);
#90=LINE('',#2229,#215);
#91=LINE('',#2231,#216);
#92=LINE('',#2233,#217);
#93=LINE('',#2235,#218);
#94=LINE('',#2238,#219);
#95=LINE('',#2239,#220);
#96=LINE('',#2241,#221);
#97=LINE('',#2243,#222);
#98=LINE('',#2245,#223);
#99=LINE('',#2247,#224);
#100=LINE('',#2249,#225);
#101=LINE('',#2251,#226);
#102=LINE('',#2254,#227);
#103=LINE('',#2255,#228);
#104=LINE('',#2257,#229);
#105=LINE('',#2259,#230);
#106=LINE('',#2261,#231);
#107=LINE('',#2263,#232);
#108=LINE('',#2265,#233);
#109=LINE('',#2267,#234);
#110=LINE('',#2270,#235);
#111=LINE('',#2271,#236);
#112=LINE('',#2273,#237);
#113=LINE('',#2275,#238);
#114=LINE('',#2277,#239);
#115=LINE('',#2279,#240);
#116=LINE('',#2281,#241);
#117=LINE('',#2283,#242);
#118=LINE('',#2286,#243);
#119=LINE('',#2287,#244);
#120=LINE('',#2289,#245);
#121=LINE('',#2291,#246);
#122=LINE('',#2293,#247);
#123=LINE('',#2295,#248);
#124=LINE('',#2297,#249);
#125=LINE('',#2299,#250);
#126=LINE('',#2302,#251);
#127=LINE('',#2303,#252);
#128=LINE('',#2305,#253);
#129=LINE('',#2308,#254);
#130=LINE('',#2309,#255);
#131=LINE('',#2311,#256);
#132=LINE('',#2313,#257);
#133=LINE('',#2315,#258);
#134=LINE('',#2317,#259);
#135=LINE('',#2319,#260);
#136=LINE('',#2321,#261);
#137=VECTOR('',#1579,1.);
#138=VECTOR('',#1582,1.);
#139=VECTOR('',#1587,1.);
#140=VECTOR('',#1594,1.);
#141=VECTOR('',#1601,1.);
#142=VECTOR('',#1608,1.);
#143=VECTOR('',#1611,1.);
#144=VECTOR('',#1616,1.);
#145=VECTOR('',#1623,1.);
#146=VECTOR('',#1630,1.);
#147=VECTOR('',#1637,1.);
#148=VECTOR('',#1640,1.);
#149=VECTOR('',#1645,1.);
#150=VECTOR('',#1652,1.);
#151=VECTOR('',#1659,1.);
#152=VECTOR('',#1664,1.);
#153=VECTOR('',#1667,1.);
#154=VECTOR('',#1670,1.);
#155=VECTOR('',#1675,1.);
#156=VECTOR('',#1680,1.);
#157=VECTOR('',#1715,1.);
#158=VECTOR('',#1718,1.);
#159=VECTOR('',#1721,1.);
#160=VECTOR('',#1724,1.);
#161=VECTOR('',#1727,1.);
#162=VECTOR('',#1728,1.);
#163=VECTOR('',#1729,1.);
#164=VECTOR('',#1730,1.);
#165=VECTOR('',#1731,1.);
#166=VECTOR('',#1732,1.);
#167=VECTOR('',#1733,1.);
#168=VECTOR('',#1734,1.);
#169=VECTOR('',#1735,1.);
#170=VECTOR('',#1736,1.);
#171=VECTOR('',#1737,1.);
#172=VECTOR('',#1738,1.);
#173=VECTOR('',#1739,1.);
#174=VECTOR('',#1740,1.);
#175=VECTOR('',#1741,1.);
#176=VECTOR('',#1742,1.);
#177=VECTOR('',#1743,1.);
#178=VECTOR('',#1744,1.);
#179=VECTOR('',#1745,1.);
#180=VECTOR('',#1746,1.);
#181=VECTOR('',#1747,1.);
#182=VECTOR('',#1748,1.);
#183=VECTOR('',#1749,1.);
#184=VECTOR('',#1750,1.);
#185=VECTOR('',#1751,1.);
#186=VECTOR('',#1752,1.);
#187=VECTOR('',#1753,1.);
#188=VECTOR('',#1754,1.);
#189=VECTOR('',#1755,1.);
#190=VECTOR('',#1770,1.);
#191=VECTOR('',#1771,1.);
#192=VECTOR('',#1772,1.);
#193=VECTOR('',#1775,1.);
#194=VECTOR('',#1776,1.);
#195=VECTOR('',#1779,1.);
#196=VECTOR('',#1780,1.);
#197=VECTOR('',#1783,1.);
#198=VECTOR('',#1786,1.);
#199=VECTOR('',#1787,1.);
#200=VECTOR('',#1788,1.);
#201=VECTOR('',#1791,1.);
#202=VECTOR('',#1792,1.);
#203=VECTOR('',#1795,1.);
#204=VECTOR('',#1796,1.);
#205=VECTOR('',#1797,1.);
#206=VECTOR('',#1800,1.);
#207=VECTOR('',#1803,1.);
#208=VECTOR('',#1804,1.);
#209=VECTOR('',#1805,1.);
#210=VECTOR('',#1808,1.);
#211=VECTOR('',#1809,1.);
#212=VECTOR('',#1812,1.);
#213=VECTOR('',#1813,1.);
#214=VECTOR('',#1814,1.);
#215=VECTOR('',#1817,1.);
#216=VECTOR('',#1818,1.);
#217=VECTOR('',#1821,1.);
#218=VECTOR('',#1824,1.);
#219=VECTOR('',#1825,1.);
#220=VECTOR('',#1826,1.);
#221=VECTOR('',#1829,1.);
#222=VECTOR('',#1830,1.);
#223=VECTOR('',#1833,1.);
#224=VECTOR('',#1834,1.);
#225=VECTOR('',#1837,1.);
#226=VECTOR('',#1840,1.);
#227=VECTOR('',#1841,1.);
#228=VECTOR('',#1842,1.);
#229=VECTOR('',#1845,1.);
#230=VECTOR('',#1846,1.);
#231=VECTOR('',#1849,1.);
#232=VECTOR('',#1850,1.);
#233=VECTOR('',#1853,1.);
#234=VECTOR('',#1856,1.);
#235=VECTOR('',#1857,1.);
#236=VECTOR('',#1858,1.);
#237=VECTOR('',#1861,1.);
#238=VECTOR('',#1862,1.);
#239=VECTOR('',#1865,1.);
#240=VECTOR('',#1866,1.);
#241=VECTOR('',#1869,1.);
#242=VECTOR('',#1872,1.);
#243=VECTOR('',#1873,1.);
#244=VECTOR('',#1874,1.);
#245=VECTOR('',#1877,1.);
#246=VECTOR('',#1878,1.);
#247=VECTOR('',#1881,1.);
#248=VECTOR('',#1882,1.);
#249=VECTOR('',#1885,1.);
#250=VECTOR('',#1888,1.);
#251=VECTOR('',#1889,1.);
#252=VECTOR('',#1890,1.);
#253=VECTOR('',#1893,1.);
#254=VECTOR('',#1894,1.);
#255=VECTOR('',#1895,1.);
#256=VECTOR('',#1898,1.);
#257=VECTOR('',#1899,1.);
#258=VECTOR('',#1900,1.);
#259=VECTOR('',#1903,1.);
#260=VECTOR('',#1904,1.);
#261=VECTOR('',#1905,1.);
#262=CYLINDRICAL_SURFACE('',#1421,0.00150000000000002);
#263=CYLINDRICAL_SURFACE('',#1424,0.00164029545359428);
#264=CYLINDRICAL_SURFACE('',#1427,0.00160516239702083);
#265=CYLINDRICAL_SURFACE('',#1430,0.00156004113359599);
#266=CYLINDRICAL_SURFACE('',#1433,0.0015924085322576);
#267=CYLINDRICAL_SURFACE('',#1436,0.00140030202778856);
#268=CYLINDRICAL_SURFACE('',#1439,0.00132036275389283);
#269=CYLINDRICAL_SURFACE('',#1442,0.00127124019857601);
#270=CYLINDRICAL_SURFACE('',#1445,0.0013251270158499);
#271=CYLINDRICAL_SURFACE('',#1448,0.00175088993407282);
#272=CYLINDRICAL_SURFACE('',#1451,0.00165421008641593);
#273=CYLINDRICAL_SURFACE('',#1454,0.00169891566173028);
#274=CYLINDRICAL_SURFACE('',#1457,0.00175782613267336);
#275=CYLINDRICAL_SURFACE('',#1460,0.00199831702134062);
#276=CYLINDRICAL_SURFACE('',#1462,0.00191090949015027);
#277=CYLINDRICAL_SURFACE('',#1464,0.00190171683903025);
#278=CYLINDRICAL_SURFACE('',#1466,0.00195412461353645);
#279=CYLINDRICAL_SURFACE('',#1468,0.00162825119100046);
#280=CYLINDRICAL_SURFACE('',#1471,0.00133720174816252);
#281=CYLINDRICAL_SURFACE('',#1474,0.00185626338716964);
#282=CYLINDRICAL_SURFACE('',#1477,0.00208657190720899);
#283=CYLINDRICAL_SURFACE('',#1527,0.00145);
#284=CYLINDRICAL_SURFACE('',#1529,0.00145);
#285=CYLINDRICAL_SURFACE('',#1531,0.00145);
#286=CYLINDRICAL_SURFACE('',#1539,0.00145);
#287=CYLINDRICAL_SURFACE('',#1540,0.00150800031622456);
#288=CYLINDRICAL_SURFACE('',#1543,0.00152449484691268);
#289=CYLINDRICAL_SURFACE('',#1546,0.00153254629236928);
#290=CYLINDRICAL_SURFACE('',#1549,0.005);
#291=CYLINDRICAL_SURFACE('',#1550,0.005);
#292=CYLINDRICAL_SURFACE('',#1551,0.005);
#293=CYLINDRICAL_SURFACE('',#1552,0.005);
#294=ORIENTED_EDGE('',*,*,#672,.F.);
#295=ORIENTED_EDGE('',*,*,#673,.T.);
#296=ORIENTED_EDGE('',*,*,#674,.T.);
#297=ORIENTED_EDGE('',*,*,#675,.T.);
#298=ORIENTED_EDGE('',*,*,#676,.T.);
#299=ORIENTED_EDGE('',*,*,#677,.T.);
#300=ORIENTED_EDGE('',*,*,#678,.F.);
#301=ORIENTED_EDGE('',*,*,#672,.T.);
#302=ORIENTED_EDGE('',*,*,#678,.T.);
#303=ORIENTED_EDGE('',*,*,#679,.F.);
#304=ORIENTED_EDGE('',*,*,#680,.F.);
#305=ORIENTED_EDGE('',*,*,#681,.T.);
#306=ORIENTED_EDGE('',*,*,#682,.T.);
#307=ORIENTED_EDGE('',*,*,#683,.F.);
#308=ORIENTED_EDGE('',*,*,#684,.F.);
#309=ORIENTED_EDGE('',*,*,#685,.T.);
#310=ORIENTED_EDGE('',*,*,#680,.T.);
#311=ORIENTED_EDGE('',*,*,#686,.F.);
#312=ORIENTED_EDGE('',*,*,#687,.F.);
#313=ORIENTED_EDGE('',*,*,#688,.T.);
#314=ORIENTED_EDGE('',*,*,#684,.T.);
#315=ORIENTED_EDGE('',*,*,#689,.F.);
#316=ORIENTED_EDGE('',*,*,#690,.F.);
#317=ORIENTED_EDGE('',*,*,#691,.T.);
#318=ORIENTED_EDGE('',*,*,#687,.T.);
#319=ORIENTED_EDGE('',*,*,#692,.F.);
#320=ORIENTED_EDGE('',*,*,#693,.F.);
#321=ORIENTED_EDGE('',*,*,#694,.T.);
#322=ORIENTED_EDGE('',*,*,#695,.T.);
#323=ORIENTED_EDGE('',*,*,#696,.F.);
#324=ORIENTED_EDGE('',*,*,#697,.F.);
#325=ORIENTED_EDGE('',*,*,#698,.T.);
#326=ORIENTED_EDGE('',*,*,#693,.T.);
#327=ORIENTED_EDGE('',*,*,#699,.F.);
#328=ORIENTED_EDGE('',*,*,#700,.F.);
#329=ORIENTED_EDGE('',*,*,#701,.T.);
#330=ORIENTED_EDGE('',*,*,#697,.T.);
#331=ORIENTED_EDGE('',*,*,#702,.F.);
#332=ORIENTED_EDGE('',*,*,#703,.F.);
#333=ORIENTED_EDGE('',*,*,#704,.T.);
#334=ORIENTED_EDGE('',*,*,#700,.T.);
#335=ORIENTED_EDGE('',*,*,#705,.F.);
#336=ORIENTED_EDGE('',*,*,#706,.F.);
#337=ORIENTED_EDGE('',*,*,#707,.T.);
#338=ORIENTED_EDGE('',*,*,#708,.T.);
#339=ORIENTED_EDGE('',*,*,#709,.F.);
#340=ORIENTED_EDGE('',*,*,#710,.F.);
#341=ORIENTED_EDGE('',*,*,#711,.T.);
#342=ORIENTED_EDGE('',*,*,#706,.T.);
#343=ORIENTED_EDGE('',*,*,#712,.F.);
#344=ORIENTED_EDGE('',*,*,#713,.F.);
#345=ORIENTED_EDGE('',*,*,#714,.T.);
#346=ORIENTED_EDGE('',*,*,#710,.T.);
#347=ORIENTED_EDGE('',*,*,#715,.F.);
#348=ORIENTED_EDGE('',*,*,#716,.F.);
#349=ORIENTED_EDGE('',*,*,#717,.T.);
#350=ORIENTED_EDGE('',*,*,#713,.T.);
#351=ORIENTED_EDGE('',*,*,#673,.F.);
#352=ORIENTED_EDGE('',*,*,#718,.F.);
#353=ORIENTED_EDGE('',*,*,#719,.T.);
#354=ORIENTED_EDGE('',*,*,#720,.T.);
#355=ORIENTED_EDGE('',*,*,#677,.F.);
#356=ORIENTED_EDGE('',*,*,#721,.F.);
#357=ORIENTED_EDGE('',*,*,#722,.T.);
#358=ORIENTED_EDGE('',*,*,#718,.T.);
#359=ORIENTED_EDGE('',*,*,#676,.F.);
#360=ORIENTED_EDGE('',*,*,#723,.F.);
#361=ORIENTED_EDGE('',*,*,#724,.T.);
#362=ORIENTED_EDGE('',*,*,#721,.T.);
#363=ORIENTED_EDGE('',*,*,#675,.F.);
#364=ORIENTED_EDGE('',*,*,#725,.F.);
#365=ORIENTED_EDGE('',*,*,#726,.T.);
#366=ORIENTED_EDGE('',*,*,#723,.T.);
#367=ORIENTED_EDGE('',*,*,#727,.F.);
#368=ORIENTED_EDGE('',*,*,#682,.F.);
#369=ORIENTED_EDGE('',*,*,#728,.T.);
#370=ORIENTED_EDGE('',*,*,#690,.T.);
#371=ORIENTED_EDGE('',*,*,#729,.F.);
#372=ORIENTED_EDGE('',*,*,#695,.F.);
#373=ORIENTED_EDGE('',*,*,#730,.T.);
#374=ORIENTED_EDGE('',*,*,#703,.T.);
#375=ORIENTED_EDGE('',*,*,#731,.F.);
#376=ORIENTED_EDGE('',*,*,#708,.F.);
#377=ORIENTED_EDGE('',*,*,#732,.T.);
#378=ORIENTED_EDGE('',*,*,#716,.T.);
#379=ORIENTED_EDGE('',*,*,#674,.F.);
#380=ORIENTED_EDGE('',*,*,#720,.F.);
#381=ORIENTED_EDGE('',*,*,#733,.T.);
#382=ORIENTED_EDGE('',*,*,#725,.T.);
#383=ORIENTED_EDGE('',*,*,#719,.F.);
#384=ORIENTED_EDGE('',*,*,#722,.F.);
#385=ORIENTED_EDGE('',*,*,#724,.F.);
#386=ORIENTED_EDGE('',*,*,#726,.F.);
#387=ORIENTED_EDGE('',*,*,#733,.F.);
#388=ORIENTED_EDGE('',*,*,#707,.F.);
#389=ORIENTED_EDGE('',*,*,#711,.F.);
#390=ORIENTED_EDGE('',*,*,#714,.F.);
#391=ORIENTED_EDGE('',*,*,#717,.F.);
#392=ORIENTED_EDGE('',*,*,#732,.F.);
#393=ORIENTED_EDGE('',*,*,#694,.F.);
#394=ORIENTED_EDGE('',*,*,#698,.F.);
#395=ORIENTED_EDGE('',*,*,#701,.F.);
#396=ORIENTED_EDGE('',*,*,#704,.F.);
#397=ORIENTED_EDGE('',*,*,#730,.F.);
#398=ORIENTED_EDGE('',*,*,#681,.F.);
#399=ORIENTED_EDGE('',*,*,#685,.F.);
#400=ORIENTED_EDGE('',*,*,#688,.F.);
#401=ORIENTED_EDGE('',*,*,#691,.F.);
#402=ORIENTED_EDGE('',*,*,#728,.F.);
#403=ORIENTED_EDGE('',*,*,#734,.F.);
#404=ORIENTED_EDGE('',*,*,#735,.F.);
#405=ORIENTED_EDGE('',*,*,#736,.F.);
#406=ORIENTED_EDGE('',*,*,#737,.F.);
#407=ORIENTED_EDGE('',*,*,#738,.F.);
#408=ORIENTED_EDGE('',*,*,#739,.T.);
#409=ORIENTED_EDGE('',*,*,#740,.F.);
#410=ORIENTED_EDGE('',*,*,#741,.T.);
#411=ORIENTED_EDGE('',*,*,#742,.T.);
#412=ORIENTED_EDGE('',*,*,#743,.T.);
#413=ORIENTED_EDGE('',*,*,#744,.T.);
#414=ORIENTED_EDGE('',*,*,#745,.T.);
#415=ORIENTED_EDGE('',*,*,#746,.F.);
#416=ORIENTED_EDGE('',*,*,#747,.F.);
#417=ORIENTED_EDGE('',*,*,#748,.T.);
#418=ORIENTED_EDGE('',*,*,#749,.T.);
#419=ORIENTED_EDGE('',*,*,#750,.F.);
#420=ORIENTED_EDGE('',*,*,#751,.T.);
#421=ORIENTED_EDGE('',*,*,#752,.T.);
#422=ORIENTED_EDGE('',*,*,#753,.F.);
#423=ORIENTED_EDGE('',*,*,#754,.F.);
#424=ORIENTED_EDGE('',*,*,#755,.F.);
#425=ORIENTED_EDGE('',*,*,#756,.T.);
#426=ORIENTED_EDGE('',*,*,#757,.T.);
#427=ORIENTED_EDGE('',*,*,#758,.F.);
#428=ORIENTED_EDGE('',*,*,#759,.F.);
#429=ORIENTED_EDGE('',*,*,#760,.T.);
#430=ORIENTED_EDGE('',*,*,#761,.T.);
#431=ORIENTED_EDGE('',*,*,#762,.T.);
#432=ORIENTED_EDGE('',*,*,#763,.F.);
#433=ORIENTED_EDGE('',*,*,#764,.T.);
#434=ORIENTED_EDGE('',*,*,#765,.F.);
#435=ORIENTED_EDGE('',*,*,#766,.F.);
#436=ORIENTED_EDGE('',*,*,#767,.F.);
#437=ORIENTED_EDGE('',*,*,#768,.T.);
#438=ORIENTED_EDGE('',*,*,#769,.T.);
#439=ORIENTED_EDGE('',*,*,#770,.F.);
#440=ORIENTED_EDGE('',*,*,#771,.F.);
#441=ORIENTED_EDGE('',*,*,#772,.T.);
#442=ORIENTED_EDGE('',*,*,#773,.T.);
#443=ORIENTED_EDGE('',*,*,#774,.F.);
#444=ORIENTED_EDGE('',*,*,#775,.F.);
#445=ORIENTED_EDGE('',*,*,#705,.T.);
#446=ORIENTED_EDGE('',*,*,#731,.T.);
#447=ORIENTED_EDGE('',*,*,#715,.T.);
#448=ORIENTED_EDGE('',*,*,#712,.T.);
#449=ORIENTED_EDGE('',*,*,#709,.T.);
#450=ORIENTED_EDGE('',*,*,#776,.F.);
#451=ORIENTED_EDGE('',*,*,#692,.T.);
#452=ORIENTED_EDGE('',*,*,#729,.T.);
#453=ORIENTED_EDGE('',*,*,#702,.T.);
#454=ORIENTED_EDGE('',*,*,#699,.T.);
#455=ORIENTED_EDGE('',*,*,#696,.T.);
#456=ORIENTED_EDGE('',*,*,#777,.F.);
#457=ORIENTED_EDGE('',*,*,#679,.T.);
#458=ORIENTED_EDGE('',*,*,#727,.T.);
#459=ORIENTED_EDGE('',*,*,#689,.T.);
#460=ORIENTED_EDGE('',*,*,#686,.T.);
#461=ORIENTED_EDGE('',*,*,#683,.T.);
#462=ORIENTED_EDGE('',*,*,#778,.F.);
#463=ORIENTED_EDGE('',*,*,#779,.F.);
#464=ORIENTED_EDGE('',*,*,#770,.T.);
#465=ORIENTED_EDGE('',*,*,#780,.T.);
#466=ORIENTED_EDGE('',*,*,#781,.T.);
#467=ORIENTED_EDGE('',*,*,#780,.F.);
#468=ORIENTED_EDGE('',*,*,#769,.F.);
#469=ORIENTED_EDGE('',*,*,#782,.T.);
#470=ORIENTED_EDGE('',*,*,#783,.T.);
#471=ORIENTED_EDGE('',*,*,#782,.F.);
#472=ORIENTED_EDGE('',*,*,#768,.F.);
#473=ORIENTED_EDGE('',*,*,#784,.T.);
#474=ORIENTED_EDGE('',*,*,#785,.F.);
#475=ORIENTED_EDGE('',*,*,#784,.F.);
#476=ORIENTED_EDGE('',*,*,#767,.T.);
#477=ORIENTED_EDGE('',*,*,#779,.T.);
#478=ORIENTED_EDGE('',*,*,#786,.F.);
#479=ORIENTED_EDGE('',*,*,#787,.F.);
#480=ORIENTED_EDGE('',*,*,#766,.T.);
#481=ORIENTED_EDGE('',*,*,#788,.T.);
#482=ORIENTED_EDGE('',*,*,#789,.F.);
#483=ORIENTED_EDGE('',*,*,#788,.F.);
#484=ORIENTED_EDGE('',*,*,#765,.T.);
#485=ORIENTED_EDGE('',*,*,#790,.T.);
#486=ORIENTED_EDGE('',*,*,#791,.T.);
#487=ORIENTED_EDGE('',*,*,#790,.F.);
#488=ORIENTED_EDGE('',*,*,#764,.F.);
#489=ORIENTED_EDGE('',*,*,#792,.T.);
#490=ORIENTED_EDGE('',*,*,#793,.T.);
#491=ORIENTED_EDGE('',*,*,#794,.F.);
#492=ORIENTED_EDGE('',*,*,#793,.F.);
#493=ORIENTED_EDGE('',*,*,#792,.F.);
#494=ORIENTED_EDGE('',*,*,#763,.T.);
#495=ORIENTED_EDGE('',*,*,#787,.T.);
#496=ORIENTED_EDGE('',*,*,#795,.T.);
#497=ORIENTED_EDGE('',*,*,#796,.F.);
#498=ORIENTED_EDGE('',*,*,#762,.F.);
#499=ORIENTED_EDGE('',*,*,#797,.T.);
#500=ORIENTED_EDGE('',*,*,#798,.T.);
#501=ORIENTED_EDGE('',*,*,#797,.F.);
#502=ORIENTED_EDGE('',*,*,#761,.F.);
#503=ORIENTED_EDGE('',*,*,#799,.T.);
#504=ORIENTED_EDGE('',*,*,#800,.T.);
#505=ORIENTED_EDGE('',*,*,#799,.F.);
#506=ORIENTED_EDGE('',*,*,#760,.F.);
#507=ORIENTED_EDGE('',*,*,#801,.T.);
#508=ORIENTED_EDGE('',*,*,#802,.T.);
#509=ORIENTED_EDGE('',*,*,#803,.F.);
#510=ORIENTED_EDGE('',*,*,#802,.F.);
#511=ORIENTED_EDGE('',*,*,#801,.F.);
#512=ORIENTED_EDGE('',*,*,#759,.T.);
#513=ORIENTED_EDGE('',*,*,#804,.T.);
#514=ORIENTED_EDGE('',*,*,#805,.F.);
#515=ORIENTED_EDGE('',*,*,#804,.F.);
#516=ORIENTED_EDGE('',*,*,#758,.T.);
#517=ORIENTED_EDGE('',*,*,#796,.T.);
#518=ORIENTED_EDGE('',*,*,#806,.T.);
#519=ORIENTED_EDGE('',*,*,#807,.F.);
#520=ORIENTED_EDGE('',*,*,#757,.F.);
#521=ORIENTED_EDGE('',*,*,#808,.T.);
#522=ORIENTED_EDGE('',*,*,#809,.T.);
#523=ORIENTED_EDGE('',*,*,#808,.F.);
#524=ORIENTED_EDGE('',*,*,#756,.F.);
#525=ORIENTED_EDGE('',*,*,#810,.T.);
#526=ORIENTED_EDGE('',*,*,#811,.F.);
#527=ORIENTED_EDGE('',*,*,#810,.F.);
#528=ORIENTED_EDGE('',*,*,#755,.T.);
#529=ORIENTED_EDGE('',*,*,#812,.T.);
#530=ORIENTED_EDGE('',*,*,#813,.F.);
#531=ORIENTED_EDGE('',*,*,#812,.F.);
#532=ORIENTED_EDGE('',*,*,#754,.T.);
#533=ORIENTED_EDGE('',*,*,#807,.T.);
#534=ORIENTED_EDGE('',*,*,#814,.F.);
#535=ORIENTED_EDGE('',*,*,#815,.F.);
#536=ORIENTED_EDGE('',*,*,#753,.T.);
#537=ORIENTED_EDGE('',*,*,#816,.T.);
#538=ORIENTED_EDGE('',*,*,#817,.T.);
#539=ORIENTED_EDGE('',*,*,#816,.F.);
#540=ORIENTED_EDGE('',*,*,#752,.F.);
#541=ORIENTED_EDGE('',*,*,#818,.T.);
#542=ORIENTED_EDGE('',*,*,#819,.T.);
#543=ORIENTED_EDGE('',*,*,#818,.F.);
#544=ORIENTED_EDGE('',*,*,#751,.F.);
#545=ORIENTED_EDGE('',*,*,#820,.T.);
#546=ORIENTED_EDGE('',*,*,#821,.F.);
#547=ORIENTED_EDGE('',*,*,#820,.F.);
#548=ORIENTED_EDGE('',*,*,#750,.T.);
#549=ORIENTED_EDGE('',*,*,#815,.T.);
#550=ORIENTED_EDGE('',*,*,#822,.T.);
#551=ORIENTED_EDGE('',*,*,#823,.F.);
#552=ORIENTED_EDGE('',*,*,#749,.F.);
#553=ORIENTED_EDGE('',*,*,#824,.T.);
#554=ORIENTED_EDGE('',*,*,#825,.T.);
#555=ORIENTED_EDGE('',*,*,#824,.F.);
#556=ORIENTED_EDGE('',*,*,#748,.F.);
#557=ORIENTED_EDGE('',*,*,#826,.T.);
#558=ORIENTED_EDGE('',*,*,#827,.F.);
#559=ORIENTED_EDGE('',*,*,#826,.F.);
#560=ORIENTED_EDGE('',*,*,#747,.T.);
#561=ORIENTED_EDGE('',*,*,#828,.T.);
#562=ORIENTED_EDGE('',*,*,#829,.F.);
#563=ORIENTED_EDGE('',*,*,#828,.F.);
#564=ORIENTED_EDGE('',*,*,#746,.T.);
#565=ORIENTED_EDGE('',*,*,#823,.T.);
#566=ORIENTED_EDGE('',*,*,#830,.F.);
#567=ORIENTED_EDGE('',*,*,#831,.F.);
#568=ORIENTED_EDGE('',*,*,#771,.T.);
#569=ORIENTED_EDGE('',*,*,#832,.T.);
#570=ORIENTED_EDGE('',*,*,#833,.F.);
#571=ORIENTED_EDGE('',*,*,#832,.F.);
#572=ORIENTED_EDGE('',*,*,#774,.T.);
#573=ORIENTED_EDGE('',*,*,#834,.T.);
#574=ORIENTED_EDGE('',*,*,#835,.T.);
#575=ORIENTED_EDGE('',*,*,#834,.F.);
#576=ORIENTED_EDGE('',*,*,#773,.F.);
#577=ORIENTED_EDGE('',*,*,#836,.T.);
#578=ORIENTED_EDGE('',*,*,#837,.T.);
#579=ORIENTED_EDGE('',*,*,#836,.F.);
#580=ORIENTED_EDGE('',*,*,#772,.F.);
#581=ORIENTED_EDGE('',*,*,#831,.T.);
#582=ORIENTED_EDGE('',*,*,#838,.F.);
#583=ORIENTED_EDGE('',*,*,#839,.T.);
#584=ORIENTED_EDGE('',*,*,#738,.T.);
#585=ORIENTED_EDGE('',*,*,#840,.T.);
#586=ORIENTED_EDGE('',*,*,#841,.T.);
#587=ORIENTED_EDGE('',*,*,#842,.T.);
#588=ORIENTED_EDGE('',*,*,#744,.F.);
#589=ORIENTED_EDGE('',*,*,#843,.T.);
#590=ORIENTED_EDGE('',*,*,#742,.F.);
#591=ORIENTED_EDGE('',*,*,#844,.T.);
#592=ORIENTED_EDGE('',*,*,#845,.T.);
#593=ORIENTED_EDGE('',*,*,#846,.T.);
#594=ORIENTED_EDGE('',*,*,#740,.T.);
#595=ORIENTED_EDGE('',*,*,#847,.T.);
#596=ORIENTED_EDGE('',*,*,#848,.F.);
#597=ORIENTED_EDGE('',*,*,#849,.T.);
#598=ORIENTED_EDGE('',*,*,#850,.F.);
#599=ORIENTED_EDGE('',*,*,#737,.T.);
#600=ORIENTED_EDGE('',*,*,#851,.F.);
#601=ORIENTED_EDGE('',*,*,#736,.T.);
#602=ORIENTED_EDGE('',*,*,#852,.F.);
#603=ORIENTED_EDGE('',*,*,#735,.T.);
#604=ORIENTED_EDGE('',*,*,#853,.T.);
#605=ORIENTED_EDGE('',*,*,#852,.T.);
#606=ORIENTED_EDGE('',*,*,#851,.T.);
#607=ORIENTED_EDGE('',*,*,#850,.T.);
#608=ORIENTED_EDGE('',*,*,#848,.T.);
#609=ORIENTED_EDGE('',*,*,#854,.T.);
#610=ORIENTED_EDGE('',*,*,#838,.T.);
#611=ORIENTED_EDGE('',*,*,#855,.T.);
#612=ORIENTED_EDGE('',*,*,#841,.F.);
#613=ORIENTED_EDGE('',*,*,#856,.T.);
#614=ORIENTED_EDGE('',*,*,#845,.F.);
#615=ORIENTED_EDGE('',*,*,#857,.T.);
#616=ORIENTED_EDGE('',*,*,#837,.F.);
#617=ORIENTED_EDGE('',*,*,#830,.T.);
#618=ORIENTED_EDGE('',*,*,#833,.T.);
#619=ORIENTED_EDGE('',*,*,#835,.F.);
#620=ORIENTED_EDGE('',*,*,#829,.T.);
#621=ORIENTED_EDGE('',*,*,#822,.F.);
#622=ORIENTED_EDGE('',*,*,#825,.F.);
#623=ORIENTED_EDGE('',*,*,#827,.T.);
#624=ORIENTED_EDGE('',*,*,#821,.T.);
#625=ORIENTED_EDGE('',*,*,#814,.T.);
#626=ORIENTED_EDGE('',*,*,#817,.F.);
#627=ORIENTED_EDGE('',*,*,#819,.F.);
#628=ORIENTED_EDGE('',*,*,#813,.T.);
#629=ORIENTED_EDGE('',*,*,#806,.F.);
#630=ORIENTED_EDGE('',*,*,#809,.F.);
#631=ORIENTED_EDGE('',*,*,#811,.T.);
#632=ORIENTED_EDGE('',*,*,#805,.T.);
#633=ORIENTED_EDGE('',*,*,#795,.F.);
#634=ORIENTED_EDGE('',*,*,#798,.F.);
#635=ORIENTED_EDGE('',*,*,#800,.F.);
#636=ORIENTED_EDGE('',*,*,#803,.T.);
#637=ORIENTED_EDGE('',*,*,#794,.T.);
#638=ORIENTED_EDGE('',*,*,#786,.T.);
#639=ORIENTED_EDGE('',*,*,#789,.T.);
#640=ORIENTED_EDGE('',*,*,#791,.F.);
#641=ORIENTED_EDGE('',*,*,#785,.T.);
#642=ORIENTED_EDGE('',*,*,#778,.T.);
#643=ORIENTED_EDGE('',*,*,#781,.F.);
#644=ORIENTED_EDGE('',*,*,#783,.F.);
#645=ORIENTED_EDGE('',*,*,#853,.F.);
#646=ORIENTED_EDGE('',*,*,#734,.T.);
#647=ORIENTED_EDGE('',*,*,#858,.F.);
#648=ORIENTED_EDGE('',*,*,#775,.T.);
#649=ORIENTED_EDGE('',*,*,#858,.T.);
#650=ORIENTED_EDGE('',*,*,#859,.F.);
#651=ORIENTED_EDGE('',*,*,#777,.T.);
#652=ORIENTED_EDGE('',*,*,#859,.T.);
#653=ORIENTED_EDGE('',*,*,#860,.F.);
#654=ORIENTED_EDGE('',*,*,#776,.T.);
#655=ORIENTED_EDGE('',*,*,#860,.T.);
#656=ORIENTED_EDGE('',*,*,#739,.F.);
#657=ORIENTED_EDGE('',*,*,#839,.F.);
#658=ORIENTED_EDGE('',*,*,#854,.F.);
#659=ORIENTED_EDGE('',*,*,#847,.F.);
#660=ORIENTED_EDGE('',*,*,#741,.F.);
#661=ORIENTED_EDGE('',*,*,#849,.F.);
#662=ORIENTED_EDGE('',*,*,#857,.F.);
#663=ORIENTED_EDGE('',*,*,#844,.F.);
#664=ORIENTED_EDGE('',*,*,#745,.F.);
#665=ORIENTED_EDGE('',*,*,#842,.F.);
#666=ORIENTED_EDGE('',*,*,#855,.F.);
#667=ORIENTED_EDGE('',*,*,#840,.F.);
#668=ORIENTED_EDGE('',*,*,#743,.F.);
#669=ORIENTED_EDGE('',*,*,#846,.F.);
#670=ORIENTED_EDGE('',*,*,#856,.F.);
#671=ORIENTED_EDGE('',*,*,#843,.F.);
#672=EDGE_CURVE('',#861,#861,#993,.T.);
#673=EDGE_CURVE('',#862,#863,#994,.T.);
#674=EDGE_CURVE('',#863,#864,#995,.T.);
#675=EDGE_CURVE('',#864,#865,#996,.T.);
#676=EDGE_CURVE('',#865,#866,#997,.T.);
#677=EDGE_CURVE('',#866,#862,#998,.T.);
#678=EDGE_CURVE('',#867,#867,#999,.T.);
#679=EDGE_CURVE('',#868,#869,#1000,.T.);
#680=EDGE_CURVE('',#870,#868,#12,.T.);
#681=EDGE_CURVE('',#870,#871,#1001,.T.);
#682=EDGE_CURVE('',#871,#869,#13,.T.);
#683=EDGE_CURVE('',#872,#868,#1002,.T.);
#684=EDGE_CURVE('',#873,#872,#14,.T.);
#685=EDGE_CURVE('',#873,#870,#1003,.T.);
#686=EDGE_CURVE('',#874,#872,#1004,.T.);
#687=EDGE_CURVE('',#875,#874,#15,.T.);
#688=EDGE_CURVE('',#875,#873,#1005,.T.);
#689=EDGE_CURVE('',#876,#874,#1006,.T.);
#690=EDGE_CURVE('',#877,#876,#16,.T.);
#691=EDGE_CURVE('',#877,#875,#1007,.T.);
#692=EDGE_CURVE('',#878,#879,#1008,.T.);
#693=EDGE_CURVE('',#880,#878,#17,.T.);
#694=EDGE_CURVE('',#880,#881,#1009,.T.);
#695=EDGE_CURVE('',#881,#879,#18,.T.);
#696=EDGE_CURVE('',#882,#878,#1010,.T.);
#697=EDGE_CURVE('',#883,#882,#19,.T.);
#698=EDGE_CURVE('',#883,#880,#1011,.T.);
#699=EDGE_CURVE('',#884,#882,#1012,.T.);
#700=EDGE_CURVE('',#885,#884,#20,.T.);
#701=EDGE_CURVE('',#885,#883,#1013,.T.);
#702=EDGE_CURVE('',#886,#884,#1014,.T.);
#703=EDGE_CURVE('',#887,#886,#21,.T.);
#704=EDGE_CURVE('',#887,#885,#1015,.T.);
#705=EDGE_CURVE('',#888,#889,#1016,.T.);
#706=EDGE_CURVE('',#890,#888,#22,.T.);
#707=EDGE_CURVE('',#890,#891,#1017,.T.);
#708=EDGE_CURVE('',#891,#889,#23,.T.);
#709=EDGE_CURVE('',#892,#888,#1018,.T.);
#710=EDGE_CURVE('',#893,#892,#24,.T.);
#711=EDGE_CURVE('',#893,#890,#1019,.T.);
#712=EDGE_CURVE('',#894,#892,#1020,.T.);
#713=EDGE_CURVE('',#895,#894,#25,.T.);
#714=EDGE_CURVE('',#895,#893,#1021,.T.);
#715=EDGE_CURVE('',#896,#894,#1022,.T.);
#716=EDGE_CURVE('',#897,#896,#26,.T.);
#717=EDGE_CURVE('',#897,#895,#1023,.T.);
#718=EDGE_CURVE('',#898,#862,#27,.T.);
#719=EDGE_CURVE('',#898,#899,#1024,.T.);
#720=EDGE_CURVE('',#899,#863,#28,.T.);
#721=EDGE_CURVE('',#900,#866,#29,.T.);
#722=EDGE_CURVE('',#900,#898,#1025,.T.);
#723=EDGE_CURVE('',#901,#865,#30,.T.);
#724=EDGE_CURVE('',#901,#900,#1026,.T.);
#725=EDGE_CURVE('',#902,#864,#31,.T.);
#726=EDGE_CURVE('',#902,#901,#1027,.T.);
#727=EDGE_CURVE('',#869,#876,#1028,.T.);
#728=EDGE_CURVE('',#871,#877,#1029,.T.);
#729=EDGE_CURVE('',#879,#886,#1030,.T.);
#730=EDGE_CURVE('',#881,#887,#1031,.T.);
#731=EDGE_CURVE('',#889,#896,#1032,.T.);
#732=EDGE_CURVE('',#891,#897,#1033,.T.);
#733=EDGE_CURVE('',#899,#902,#1034,.T.);
#734=EDGE_CURVE('',#903,#903,#1035,.T.);
#735=EDGE_CURVE('',#904,#904,#1036,.T.);
#736=EDGE_CURVE('',#905,#905,#1037,.T.);
#737=EDGE_CURVE('',#906,#906,#1038,.T.);
#738=EDGE_CURVE('',#907,#908,#32,.T.);
#739=EDGE_CURVE('',#907,#909,#1039,.T.);
#740=EDGE_CURVE('',#910,#909,#33,.T.);
#741=EDGE_CURVE('',#910,#911,#1040,.T.);
#742=EDGE_CURVE('',#911,#912,#34,.T.);
#743=EDGE_CURVE('',#912,#913,#1041,.T.);
#744=EDGE_CURVE('',#913,#914,#35,.T.);
#745=EDGE_CURVE('',#914,#908,#1042,.T.);
#746=EDGE_CURVE('',#915,#916,#36,.T.);
#747=EDGE_CURVE('',#917,#915,#37,.T.);
#748=EDGE_CURVE('',#917,#918,#38,.T.);
#749=EDGE_CURVE('',#918,#916,#39,.T.);
#750=EDGE_CURVE('',#919,#920,#40,.T.);
#751=EDGE_CURVE('',#919,#921,#41,.T.);
#752=EDGE_CURVE('',#921,#922,#42,.T.);
#753=EDGE_CURVE('',#920,#922,#43,.T.);
#754=EDGE_CURVE('',#923,#924,#44,.T.);
#755=EDGE_CURVE('',#925,#923,#45,.T.);
#756=EDGE_CURVE('',#925,#926,#46,.T.);
#757=EDGE_CURVE('',#926,#924,#47,.T.);
#758=EDGE_CURVE('',#927,#928,#48,.T.);
#759=EDGE_CURVE('',#929,#927,#49,.T.);
#760=EDGE_CURVE('',#929,#930,#50,.T.);
#761=EDGE_CURVE('',#930,#931,#51,.T.);
#762=EDGE_CURVE('',#931,#928,#52,.T.);
#763=EDGE_CURVE('',#932,#933,#53,.T.);
#764=EDGE_CURVE('',#932,#934,#54,.T.);
#765=EDGE_CURVE('',#935,#934,#55,.T.);
#766=EDGE_CURVE('',#933,#935,#56,.T.);
#767=EDGE_CURVE('',#936,#937,#57,.T.);
#768=EDGE_CURVE('',#936,#938,#58,.T.);
#769=EDGE_CURVE('',#938,#939,#59,.T.);
#770=EDGE_CURVE('',#937,#939,#60,.T.);
#771=EDGE_CURVE('',#940,#941,#61,.T.);
#772=EDGE_CURVE('',#940,#942,#62,.T.);
#773=EDGE_CURVE('',#942,#943,#63,.T.);
#774=EDGE_CURVE('',#941,#943,#64,.T.);
#775=EDGE_CURVE('',#944,#944,#1043,.T.);
#776=EDGE_CURVE('',#945,#945,#1044,.T.);
#777=EDGE_CURVE('',#946,#946,#1045,.T.);
#778=EDGE_CURVE('',#947,#948,#65,.T.);
#779=EDGE_CURVE('',#937,#947,#66,.T.);
#780=EDGE_CURVE('',#939,#948,#67,.T.);
#781=EDGE_CURVE('',#949,#948,#68,.T.);
#782=EDGE_CURVE('',#938,#949,#69,.T.);
#783=EDGE_CURVE('',#950,#949,#70,.T.);
#784=EDGE_CURVE('',#936,#950,#71,.T.);
#785=EDGE_CURVE('',#950,#947,#72,.T.);
#786=EDGE_CURVE('',#951,#952,#73,.T.);
#787=EDGE_CURVE('',#933,#951,#74,.T.);
#788=EDGE_CURVE('',#935,#952,#75,.T.);
#789=EDGE_CURVE('',#952,#953,#76,.T.);
#790=EDGE_CURVE('',#934,#953,#77,.T.);
#791=EDGE_CURVE('',#954,#953,#78,.T.);
#792=EDGE_CURVE('',#932,#955,#79,.T.);
#793=EDGE_CURVE('',#955,#954,#80,.T.);
#794=EDGE_CURVE('',#954,#951,#81,.T.);
#795=EDGE_CURVE('',#956,#957,#82,.T.);
#796=EDGE_CURVE('',#928,#957,#83,.T.);
#797=EDGE_CURVE('',#931,#956,#84,.T.);
#798=EDGE_CURVE('',#958,#956,#85,.T.);
#799=EDGE_CURVE('',#930,#958,#86,.T.);
#800=EDGE_CURVE('',#959,#958,#87,.T.);
#801=EDGE_CURVE('',#929,#960,#88,.T.);
#802=EDGE_CURVE('',#960,#959,#89,.T.);
#803=EDGE_CURVE('',#959,#961,#90,.T.);
#804=EDGE_CURVE('',#927,#961,#91,.T.);
#805=EDGE_CURVE('',#961,#957,#92,.T.);
#806=EDGE_CURVE('',#962,#963,#93,.T.);
#807=EDGE_CURVE('',#924,#963,#94,.T.);
#808=EDGE_CURVE('',#926,#962,#95,.T.);
#809=EDGE_CURVE('',#964,#962,#96,.T.);
#810=EDGE_CURVE('',#925,#964,#97,.T.);
#811=EDGE_CURVE('',#964,#965,#98,.T.);
#812=EDGE_CURVE('',#923,#965,#99,.T.);
#813=EDGE_CURVE('',#965,#963,#100,.T.);
#814=EDGE_CURVE('',#966,#967,#101,.T.);
#815=EDGE_CURVE('',#920,#966,#102,.T.);
#816=EDGE_CURVE('',#922,#967,#103,.T.);
#817=EDGE_CURVE('',#968,#967,#104,.T.);
#818=EDGE_CURVE('',#921,#968,#105,.T.);
#819=EDGE_CURVE('',#969,#968,#106,.T.);
#820=EDGE_CURVE('',#919,#969,#107,.T.);
#821=EDGE_CURVE('',#969,#966,#108,.T.);
#822=EDGE_CURVE('',#970,#971,#109,.T.);
#823=EDGE_CURVE('',#916,#971,#110,.T.);
#824=EDGE_CURVE('',#918,#970,#111,.T.);
#825=EDGE_CURVE('',#972,#970,#112,.T.);
#826=EDGE_CURVE('',#917,#972,#113,.T.);
#827=EDGE_CURVE('',#972,#973,#114,.T.);
#828=EDGE_CURVE('',#915,#973,#115,.T.);
#829=EDGE_CURVE('',#973,#971,#116,.T.);
#830=EDGE_CURVE('',#974,#975,#117,.T.);
#831=EDGE_CURVE('',#940,#974,#118,.T.);
#832=EDGE_CURVE('',#941,#975,#119,.T.);
#833=EDGE_CURVE('',#975,#976,#120,.T.);
#834=EDGE_CURVE('',#943,#976,#121,.T.);
#835=EDGE_CURVE('',#977,#976,#122,.T.);
#836=EDGE_CURVE('',#942,#977,#123,.T.);
#837=EDGE_CURVE('',#974,#977,#124,.T.);
#838=EDGE_CURVE('',#978,#979,#125,.T.);
#839=EDGE_CURVE('',#978,#907,#126,.F.);
#840=EDGE_CURVE('',#908,#979,#127,.T.);
#841=EDGE_CURVE('',#980,#981,#128,.T.);
#842=EDGE_CURVE('',#981,#914,#129,.F.);
#843=EDGE_CURVE('',#913,#980,#130,.T.);
#844=EDGE_CURVE('',#911,#982,#131,.T.);
#845=EDGE_CURVE('',#982,#983,#132,.T.);
#846=EDGE_CURVE('',#983,#912,#133,.F.);
#847=EDGE_CURVE('',#909,#984,#134,.T.);
#848=EDGE_CURVE('',#985,#984,#135,.T.);
#849=EDGE_CURVE('',#985,#910,#136,.F.);
#850=EDGE_CURVE('',#986,#986,#1046,.T.);
#851=EDGE_CURVE('',#987,#987,#1047,.T.);
#852=EDGE_CURVE('',#988,#988,#1048,.T.);
#853=EDGE_CURVE('',#989,#989,#1049,.T.);
#854=EDGE_CURVE('',#984,#978,#1050,.F.);
#855=EDGE_CURVE('',#979,#981,#1051,.F.);
#856=EDGE_CURVE('',#980,#983,#1052,.F.);
#857=EDGE_CURVE('',#982,#985,#1053,.F.);
#858=EDGE_CURVE('',#990,#990,#1054,.T.);
#859=EDGE_CURVE('',#991,#991,#1055,.T.);
#860=EDGE_CURVE('',#992,#992,#1056,.T.);
#861=VERTEX_POINT('',#1961);
#862=VERTEX_POINT('',#1963);
#863=VERTEX_POINT('',#1964);
#864=VERTEX_POINT('',#1966);
#865=VERTEX_POINT('',#1968);
#866=VERTEX_POINT('',#1970);
#867=VERTEX_POINT('',#1974);
#868=VERTEX_POINT('',#1978);
#869=VERTEX_POINT('',#1979);
#870=VERTEX_POINT('',#1981);
#871=VERTEX_POINT('',#1983);
#872=VERTEX_POINT('',#1987);
#873=VERTEX_POINT('',#1989);
#874=VERTEX_POINT('',#1993);
#875=VERTEX_POINT('',#1995);
#876=VERTEX_POINT('',#1999);
#877=VERTEX_POINT('',#2001);
#878=VERTEX_POINT('',#2005);
#879=VERTEX_POINT('',#2006);
#880=VERTEX_POINT('',#2008);
#881=VERTEX_POINT('',#2010);
#882=VERTEX_POINT('',#2014);
#883=VERTEX_POINT('',#2016);
#884=VERTEX_POINT('',#2020);
#885=VERTEX_POINT('',#2022);
#886=VERTEX_POINT('',#2026);
#887=VERTEX_POINT('',#2028);
#888=VERTEX_POINT('',#2032);
#889=VERTEX_POINT('',#2033);
#890=VERTEX_POINT('',#2035);
#891=VERTEX_POINT('',#2037);
#892=VERTEX_POINT('',#2041);
#893=VERTEX_POINT('',#2043);
#894=VERTEX_POINT('',#2047);
#895=VERTEX_POINT('',#2049);
#896=VERTEX_POINT('',#2053);
#897=VERTEX_POINT('',#2055);
#898=VERTEX_POINT('',#2059);
#899=VERTEX_POINT('',#2061);
#900=VERTEX_POINT('',#2065);
#901=VERTEX_POINT('',#2069);
#902=VERTEX_POINT('',#2073);
#903=VERTEX_POINT('',#2088);
#904=VERTEX_POINT('',#2090);
#905=VERTEX_POINT('',#2092);
#906=VERTEX_POINT('',#2094);
#907=VERTEX_POINT('',#2096);
#908=VERTEX_POINT('',#2097);
#909=VERTEX_POINT('',#2099);
#910=VERTEX_POINT('',#2101);
#911=VERTEX_POINT('',#2103);
#912=VERTEX_POINT('',#2105);
#913=VERTEX_POINT('',#2107);
#914=VERTEX_POINT('',#2109);
#915=VERTEX_POINT('',#2112);
#916=VERTEX_POINT('',#2113);
#917=VERTEX_POINT('',#2115);
#918=VERTEX_POINT('',#2117);
#919=VERTEX_POINT('',#2120);
#920=VERTEX_POINT('',#2121);
#921=VERTEX_POINT('',#2123);
#922=VERTEX_POINT('',#2125);
#923=VERTEX_POINT('',#2128);
#924=VERTEX_POINT('',#2129);
#925=VERTEX_POINT('',#2131);
#926=VERTEX_POINT('',#2133);
#927=VERTEX_POINT('',#2136);
#928=VERTEX_POINT('',#2137);
#929=VERTEX_POINT('',#2139);
#930=VERTEX_POINT('',#2141);
#931=VERTEX_POINT('',#2143);
#932=VERTEX_POINT('',#2146);
#933=VERTEX_POINT('',#2147);
#934=VERTEX_POINT('',#2149);
#935=VERTEX_POINT('',#2151);
#936=VERTEX_POINT('',#2154);
#937=VERTEX_POINT('',#2155);
#938=VERTEX_POINT('',#2157);
#939=VERTEX_POINT('',#2159);
#940=VERTEX_POINT('',#2162);
#941=VERTEX_POINT('',#2163);
#942=VERTEX_POINT('',#2165);
#943=VERTEX_POINT('',#2167);
#944=VERTEX_POINT('',#2171);
#945=VERTEX_POINT('',#2174);
#946=VERTEX_POINT('',#2177);
#947=VERTEX_POINT('',#2180);
#948=VERTEX_POINT('',#2181);
#949=VERTEX_POINT('',#2186);
#950=VERTEX_POINT('',#2190);
#951=VERTEX_POINT('',#2196);
#952=VERTEX_POINT('',#2197);
#953=VERTEX_POINT('',#2202);
#954=VERTEX_POINT('',#2206);
#955=VERTEX_POINT('',#2208);
#956=VERTEX_POINT('',#2214);
#957=VERTEX_POINT('',#2215);
#958=VERTEX_POINT('',#2220);
#959=VERTEX_POINT('',#2224);
#960=VERTEX_POINT('',#2226);
#961=VERTEX_POINT('',#2230);
#962=VERTEX_POINT('',#2236);
#963=VERTEX_POINT('',#2237);
#964=VERTEX_POINT('',#2242);
#965=VERTEX_POINT('',#2246);
#966=VERTEX_POINT('',#2252);
#967=VERTEX_POINT('',#2253);
#968=VERTEX_POINT('',#2258);
#969=VERTEX_POINT('',#2262);
#970=VERTEX_POINT('',#2268);
#971=VERTEX_POINT('',#2269);
#972=VERTEX_POINT('',#2274);
#973=VERTEX_POINT('',#2278);
#974=VERTEX_POINT('',#2284);
#975=VERTEX_POINT('',#2285);
#976=VERTEX_POINT('',#2290);
#977=VERTEX_POINT('',#2294);
#978=VERTEX_POINT('',#2300);
#979=VERTEX_POINT('',#2301);
#980=VERTEX_POINT('',#2306);
#981=VERTEX_POINT('',#2307);
#982=VERTEX_POINT('',#2312);
#983=VERTEX_POINT('',#2314);
#984=VERTEX_POINT('',#2318);
#985=VERTEX_POINT('',#2320);
#986=VERTEX_POINT('',#2324);
#987=VERTEX_POINT('',#2327);
#988=VERTEX_POINT('',#2330);
#989=VERTEX_POINT('',#2333);
#990=VERTEX_POINT('',#2341);
#991=VERTEX_POINT('',#2345);
#992=VERTEX_POINT('',#2349);
#993=CIRCLE('',#1415,0.00150000000000002);
#994=CIRCLE('',#1416,0.00199831702134062);
#995=CIRCLE('',#1417,0.00208657190720899);
#996=CIRCLE('',#1418,0.00195412461353645);
#997=CIRCLE('',#1419,0.00190171683903025);
#998=CIRCLE('',#1420,0.00191090949015027);
#999=CIRCLE('',#1422,0.00150000000000002);
#1000=CIRCLE('',#1425,0.00164029545359428);
#1001=CIRCLE('',#1426,0.00164029545359428);
#1002=CIRCLE('',#1428,0.00160516239702083);
#1003=CIRCLE('',#1429,0.00160516239702083);
#1004=CIRCLE('',#1431,0.00156004113359599);
#1005=CIRCLE('',#1432,0.00156004113359599);
#1006=CIRCLE('',#1434,0.0015924085322576);
#1007=CIRCLE('',#1435,0.0015924085322576);
#1008=CIRCLE('',#1437,0.00140030202778856);
#1009=CIRCLE('',#1438,0.00140030202778856);
#1010=CIRCLE('',#1440,0.00132036275389283);
#1011=CIRCLE('',#1441,0.00132036275389283);
#1012=CIRCLE('',#1443,0.00127124019857601);
#1013=CIRCLE('',#1444,0.00127124019857601);
#1014=CIRCLE('',#1446,0.0013251270158499);
#1015=CIRCLE('',#1447,0.0013251270158499);
#1016=CIRCLE('',#1449,0.00175088993407282);
#1017=CIRCLE('',#1450,0.00175088993407282);
#1018=CIRCLE('',#1452,0.00165421008641593);
#1019=CIRCLE('',#1453,0.00165421008641593);
#1020=CIRCLE('',#1455,0.00169891566173028);
#1021=CIRCLE('',#1456,0.00169891566173028);
#1022=CIRCLE('',#1458,0.00175782613267336);
#1023=CIRCLE('',#1459,0.00175782613267336);
#1024=CIRCLE('',#1461,0.00199831702134062);
#1025=CIRCLE('',#1463,0.00191090949015027);
#1026=CIRCLE('',#1465,0.00190171683903025);
#1027=CIRCLE('',#1467,0.00195412461353645);
#1028=CIRCLE('',#1469,0.00162825119100046);
#1029=CIRCLE('',#1470,0.00162825119100046);
#1030=CIRCLE('',#1472,0.00133720174816252);
#1031=CIRCLE('',#1473,0.00133720174816252);
#1032=CIRCLE('',#1475,0.00185626338716964);
#1033=CIRCLE('',#1476,0.00185626338716964);
#1034=CIRCLE('',#1478,0.00208657190720899);
#1035=CIRCLE('',#1480,0.00145);
#1036=CIRCLE('',#1481,0.00145);
#1037=CIRCLE('',#1482,0.00145);
#1038=CIRCLE('',#1483,0.00145);
#1039=CIRCLE('',#1484,0.005);
#1040=CIRCLE('',#1485,0.005);
#1041=CIRCLE('',#1486,0.005);
#1042=CIRCLE('',#1487,0.005);
#1043=CIRCLE('',#1489,0.00150800031622456);
#1044=CIRCLE('',#1491,0.00153254629236928);
#1045=CIRCLE('',#1493,0.00152449484691268);
#1046=CIRCLE('',#1528,0.00145);
#1047=CIRCLE('',#1530,0.00145);
#1048=CIRCLE('',#1532,0.00145);
#1049=CIRCLE('',#1534,0.00145);
#1050=CIRCLE('',#1535,0.005);
#1051=CIRCLE('',#1536,0.005);
#1052=CIRCLE('',#1537,0.005);
#1053=CIRCLE('',#1538,0.005);
#1054=CIRCLE('',#1541,0.00150800031622456);
#1055=CIRCLE('',#1544,0.00152449484691268);
#1056=CIRCLE('',#1547,0.00153254629236928);
#1057=EDGE_LOOP('',(#294));
#1058=EDGE_LOOP('',(#295,#296,#297,#298,#299));
#1059=EDGE_LOOP('',(#300));
#1060=EDGE_LOOP('',(#301));
#1061=EDGE_LOOP('',(#302));
#1062=EDGE_LOOP('',(#303,#304,#305,#306));
#1063=EDGE_LOOP('',(#307,#308,#309,#310));
#1064=EDGE_LOOP('',(#311,#312,#313,#314));
#1065=EDGE_LOOP('',(#315,#316,#317,#318));
#1066=EDGE_LOOP('',(#319,#320,#321,#322));
#1067=EDGE_LOOP('',(#323,#324,#325,#326));
#1068=EDGE_LOOP('',(#327,#328,#329,#330));
#1069=EDGE_LOOP('',(#331,#332,#333,#334));
#1070=EDGE_LOOP('',(#335,#336,#337,#338));
#1071=EDGE_LOOP('',(#339,#340,#341,#342));
#1072=EDGE_LOOP('',(#343,#344,#345,#346));
#1073=EDGE_LOOP('',(#347,#348,#349,#350));
#1074=EDGE_LOOP('',(#351,#352,#353,#354));
#1075=EDGE_LOOP('',(#355,#356,#357,#358));
#1076=EDGE_LOOP('',(#359,#360,#361,#362));
#1077=EDGE_LOOP('',(#363,#364,#365,#366));
#1078=EDGE_LOOP('',(#367,#368,#369,#370));
#1079=EDGE_LOOP('',(#371,#372,#373,#374));
#1080=EDGE_LOOP('',(#375,#376,#377,#378));
#1081=EDGE_LOOP('',(#379,#380,#381,#382));
#1082=EDGE_LOOP('',(#383,#384,#385,#386,#387));
#1083=EDGE_LOOP('',(#388,#389,#390,#391,#392));
#1084=EDGE_LOOP('',(#393,#394,#395,#396,#397));
#1085=EDGE_LOOP('',(#398,#399,#400,#401,#402));
#1086=EDGE_LOOP('',(#403));
#1087=EDGE_LOOP('',(#404));
#1088=EDGE_LOOP('',(#405));
#1089=EDGE_LOOP('',(#406));
#1090=EDGE_LOOP('',(#407,#408,#409,#410,#411,#412,#413,#414));
#1091=EDGE_LOOP('',(#415,#416,#417,#418));
#1092=EDGE_LOOP('',(#419,#420,#421,#422));
#1093=EDGE_LOOP('',(#423,#424,#425,#426));
#1094=EDGE_LOOP('',(#427,#428,#429,#430,#431));
#1095=EDGE_LOOP('',(#432,#433,#434,#435));
#1096=EDGE_LOOP('',(#436,#437,#438,#439));
#1097=EDGE_LOOP('',(#440,#441,#442,#443));
#1098=EDGE_LOOP('',(#444));
#1099=EDGE_LOOP('',(#445,#446,#447,#448,#449));
#1100=EDGE_LOOP('',(#450));
#1101=EDGE_LOOP('',(#451,#452,#453,#454,#455));
#1102=EDGE_LOOP('',(#456));
#1103=EDGE_LOOP('',(#457,#458,#459,#460,#461));
#1104=EDGE_LOOP('',(#462,#463,#464,#465));
#1105=EDGE_LOOP('',(#466,#467,#468,#469));
#1106=EDGE_LOOP('',(#470,#471,#472,#473));
#1107=EDGE_LOOP('',(#474,#475,#476,#477));
#1108=EDGE_LOOP('',(#478,#479,#480,#481));
#1109=EDGE_LOOP('',(#482,#483,#484,#485));
#1110=EDGE_LOOP('',(#486,#487,#488,#489,#490));
#1111=EDGE_LOOP('',(#491,#492,#493,#494,#495));
#1112=EDGE_LOOP('',(#496,#497,#498,#499));
#1113=EDGE_LOOP('',(#500,#501,#502,#503));
#1114=EDGE_LOOP('',(#504,#505,#506,#507,#508));
#1115=EDGE_LOOP('',(#509,#510,#511,#512,#513));
#1116=EDGE_LOOP('',(#514,#515,#516,#517));
#1117=EDGE_LOOP('',(#518,#519,#520,#521));
#1118=EDGE_LOOP('',(#522,#523,#524,#525));
#1119=EDGE_LOOP('',(#526,#527,#528,#529));
#1120=EDGE_LOOP('',(#530,#531,#532,#533));
#1121=EDGE_LOOP('',(#534,#535,#536,#537));
#1122=EDGE_LOOP('',(#538,#539,#540,#541));
#1123=EDGE_LOOP('',(#542,#543,#544,#545));
#1124=EDGE_LOOP('',(#546,#547,#548,#549));
#1125=EDGE_LOOP('',(#550,#551,#552,#553));
#1126=EDGE_LOOP('',(#554,#555,#556,#557));
#1127=EDGE_LOOP('',(#558,#559,#560,#561));
#1128=EDGE_LOOP('',(#562,#563,#564,#565));
#1129=EDGE_LOOP('',(#566,#567,#568,#569));
#1130=EDGE_LOOP('',(#570,#571,#572,#573));
#1131=EDGE_LOOP('',(#574,#575,#576,#577));
#1132=EDGE_LOOP('',(#578,#579,#580,#581));
#1133=EDGE_LOOP('',(#582,#583,#584,#585));
#1134=EDGE_LOOP('',(#586,#587,#588,#589));
#1135=EDGE_LOOP('',(#590,#591,#592,#593));
#1136=EDGE_LOOP('',(#594,#595,#596,#597));
#1137=EDGE_LOOP('',(#598));
#1138=EDGE_LOOP('',(#599));
#1139=EDGE_LOOP('',(#600));
#1140=EDGE_LOOP('',(#601));
#1141=EDGE_LOOP('',(#602));
#1142=EDGE_LOOP('',(#603));
#1143=EDGE_LOOP('',(#604));
#1144=EDGE_LOOP('',(#605));
#1145=EDGE_LOOP('',(#606));
#1146=EDGE_LOOP('',(#607));
#1147=EDGE_LOOP('',(#608,#609,#610,#611,#612,#613,#614,#615));
#1148=EDGE_LOOP('',(#616,#617,#618,#619));
#1149=EDGE_LOOP('',(#620,#621,#622,#623));
#1150=EDGE_LOOP('',(#624,#625,#626,#627));
#1151=EDGE_LOOP('',(#628,#629,#630,#631));
#1152=EDGE_LOOP('',(#632,#633,#634,#635,#636));
#1153=EDGE_LOOP('',(#637,#638,#639,#640));
#1154=EDGE_LOOP('',(#641,#642,#643,#644));
#1155=EDGE_LOOP('',(#645));
#1156=EDGE_LOOP('',(#646));
#1157=EDGE_LOOP('',(#647));
#1158=EDGE_LOOP('',(#648));
#1159=EDGE_LOOP('',(#649));
#1160=EDGE_LOOP('',(#650));
#1161=EDGE_LOOP('',(#651));
#1162=EDGE_LOOP('',(#652));
#1163=EDGE_LOOP('',(#653));
#1164=EDGE_LOOP('',(#654));
#1165=EDGE_LOOP('',(#655));
#1166=EDGE_LOOP('',(#656,#657,#658,#659));
#1167=EDGE_LOOP('',(#660,#661,#662,#663));
#1168=EDGE_LOOP('',(#664,#665,#666,#667));
#1169=EDGE_LOOP('',(#668,#669,#670,#671));
#1170=FACE_BOUND('',#1057,.T.);
#1171=FACE_BOUND('',#1058,.T.);
#1172=FACE_BOUND('',#1059,.T.);
#1173=FACE_BOUND('',#1060,.T.);
#1174=FACE_BOUND('',#1061,.T.);
#1175=FACE_BOUND('',#1062,.T.);
#1176=FACE_BOUND('',#1063,.T.);
#1177=FACE_BOUND('',#1064,.T.);
#1178=FACE_BOUND('',#1065,.T.);
#1179=FACE_BOUND('',#1066,.T.);
#1180=FACE_BOUND('',#1067,.T.);
#1181=FACE_BOUND('',#1068,.T.);
#1182=FACE_BOUND('',#1069,.T.);
#1183=FACE_BOUND('',#1070,.T.);
#1184=FACE_BOUND('',#1071,.T.);
#1185=FACE_BOUND('',#1072,.T.);
#1186=FACE_BOUND('',#1073,.T.);
#1187=FACE_BOUND('',#1074,.T.);
#1188=FACE_BOUND('',#1075,.T.);
#1189=FACE_BOUND('',#1076,.T.);
#1190=FACE_BOUND('',#1077,.T.);
#1191=FACE_BOUND('',#1078,.T.);
#1192=FACE_BOUND('',#1079,.T.);
#1193=FACE_BOUND('',#1080,.T.);
#1194=FACE_BOUND('',#1081,.T.);
#1195=FACE_BOUND('',#1082,.T.);
#1196=FACE_BOUND('',#1083,.T.);
#1197=FACE_BOUND('',#1084,.T.);
#1198=FACE_BOUND('',#1085,.T.);
#1199=FACE_BOUND('',#1086,.T.);
#1200=FACE_BOUND('',#1087,.T.);
#1201=FACE_BOUND('',#1088,.T.);
#1202=FACE_BOUND('',#1089,.T.);
#1203=FACE_BOUND('',#1090,.T.);
#1204=FACE_BOUND('',#1091,.T.);
#1205=FACE_BOUND('',#1092,.T.);
#1206=FACE_BOUND('',#1093,.T.);
#1207=FACE_BOUND('',#1094,.T.);
#1208=FACE_BOUND('',#1095,.T.);
#1209=FACE_BOUND('',#1096,.T.);
#1210=FACE_BOUND('',#1097,.T.);
#1211=FACE_BOUND('',#1098,.T.);
#1212=FACE_BOUND('',#1099,.T.);
#1213=FACE_BOUND('',#1100,.T.);
#1214=FACE_BOUND('',#1101,.T.);
#1215=FACE_BOUND('',#1102,.T.);
#1216=FACE_BOUND('',#1103,.T.);
#1217=FACE_BOUND('',#1104,.T.);
#1218=FACE_BOUND('',#1105,.T.);
#1219=FACE_BOUND('',#1106,.T.);
#1220=FACE_BOUND('',#1107,.T.);
#1221=FACE_BOUND('',#1108,.T.);
#1222=FACE_BOUND('',#1109,.T.);
#1223=FACE_BOUND('',#1110,.T.);
#1224=FACE_BOUND('',#1111,.T.);
#1225=FACE_BOUND('',#1112,.T.);
#1226=FACE_BOUND('',#1113,.T.);
#1227=FACE_BOUND('',#1114,.T.);
#1228=FACE_BOUND('',#1115,.T.);
#1229=FACE_BOUND('',#1116,.T.);
#1230=FACE_BOUND('',#1117,.T.);
#1231=FACE_BOUND('',#1118,.T.);
#1232=FACE_BOUND('',#1119,.T.);
#1233=FACE_BOUND('',#1120,.T.);
#1234=FACE_BOUND('',#1121,.T.);
#1235=FACE_BOUND('',#1122,.T.);
#1236=FACE_BOUND('',#1123,.T.);
#1237=FACE_BOUND('',#1124,.T.);
#1238=FACE_BOUND('',#1125,.T.);
#1239=FACE_BOUND('',#1126,.T.);
#1240=FACE_BOUND('',#1127,.T.);
#1241=FACE_BOUND('',#1128,.T.);
#1242=FACE_BOUND('',#1129,.T.);
#1243=FACE_BOUND('',#1130,.T.);
#1244=FACE_BOUND('',#1131,.T.);
#1245=FACE_BOUND('',#1132,.T.);
#1246=FACE_BOUND('',#1133,.T.);
#1247=FACE_BOUND('',#1134,.T.);
#1248=FACE_BOUND('',#1135,.T.);
#1249=FACE_BOUND('',#1136,.T.);
#1250=FACE_BOUND('',#1137,.T.);
#1251=FACE_BOUND('',#1138,.T.);
#1252=FACE_BOUND('',#1139,.T.);
#1253=FACE_BOUND('',#1140,.T.);
#1254=FACE_BOUND('',#1141,.T.);
#1255=FACE_BOUND('',#1142,.T.);
#1256=FACE_BOUND('',#1143,.T.);
#1257=FACE_BOUND('',#1144,.T.);
#1258=FACE_BOUND('',#1145,.T.);
#1259=FACE_BOUND('',#1146,.T.);
#1260=FACE_BOUND('',#1147,.T.);
#1261=FACE_BOUND('',#1148,.T.);
#1262=FACE_BOUND('',#1149,.T.);
#1263=FACE_BOUND('',#1150,.T.);
#1264=FACE_BOUND('',#1151,.T.);
#1265=FACE_BOUND('',#1152,.T.);
#1266=FACE_BOUND('',#1153,.T.);
#1267=FACE_BOUND('',#1154,.T.);
#1268=FACE_BOUND('',#1155,.T.);
#1269=FACE_BOUND('',#1156,.T.);
#1270=FACE_BOUND('',#1157,.T.);
#1271=FACE_BOUND('',#1158,.T.);
#1272=FACE_BOUND('',#1159,.T.);
#1273=FACE_BOUND('',#1160,.T.);
#1274=FACE_BOUND('',#1161,.T.);
#1275=FACE_BOUND('',#1162,.T.);
#1276=FACE_BOUND('',#1163,.T.);
#1277=FACE_BOUND('',#1164,.T.);
#1278=FACE_BOUND('',#1165,.T.);
#1279=FACE_BOUND('',#1166,.T.);
#1280=FACE_BOUND('',#1167,.T.);
#1281=FACE_BOUND('',#1168,.T.);
#1282=FACE_BOUND('',#1169,.T.);
#1283=PLANE('',#1414);
#1284=PLANE('',#1423);
#1285=PLANE('',#1479);
#1286=PLANE('',#1488);
#1287=PLANE('',#1490);
#1288=PLANE('',#1492);
#1289=PLANE('',#1494);
#1290=PLANE('',#1495);
#1291=PLANE('',#1496);
#1292=PLANE('',#1497);
#1293=PLANE('',#1498);
#1294=PLANE('',#1499);
#1295=PLANE('',#1500);
#1296=PLANE('',#1501);
#1297=PLANE('',#1502);
#1298=PLANE('',#1503);
#1299=PLANE('',#1504);
#1300=PLANE('',#1505);
#1301=PLANE('',#1506);
#1302=PLANE('',#1507);
#1303=PLANE('',#1508);
#1304=PLANE('',#1509);
#1305=PLANE('',#1510);
#1306=PLANE('',#1511);
#1307=PLANE('',#1512);
#1308=PLANE('',#1513);
#1309=PLANE('',#1514);
#1310=PLANE('',#1515);
#1311=PLANE('',#1516);
#1312=PLANE('',#1517);
#1313=PLANE('',#1518);
#1314=PLANE('',#1519);
#1315=PLANE('',#1520);
#1316=PLANE('',#1521);
#1317=PLANE('',#1522);
#1318=PLANE('',#1523);
#1319=PLANE('',#1524);
#1320=PLANE('',#1525);
#1321=PLANE('',#1526);
#1322=PLANE('',#1533);
#1323=PLANE('',#1542);
#1324=PLANE('',#1545);
#1325=PLANE('',#1548);
#1326=ADVANCED_FACE('',(#1170,#1171),#1283,.T.);
#1327=ADVANCED_FACE('',(#1172,#1173),#262,.T.);
#1328=ADVANCED_FACE('',(#1174),#1284,.T.);
#1329=ADVANCED_FACE('',(#1175),#263,.F.);
#1330=ADVANCED_FACE('',(#1176),#264,.F.);
#1331=ADVANCED_FACE('',(#1177),#265,.F.);
#1332=ADVANCED_FACE('',(#1178),#266,.F.);
#1333=ADVANCED_FACE('',(#1179),#267,.F.);
#1334=ADVANCED_FACE('',(#1180),#268,.F.);
#1335=ADVANCED_FACE('',(#1181),#269,.F.);
#1336=ADVANCED_FACE('',(#1182),#270,.F.);
#1337=ADVANCED_FACE('',(#1183),#271,.F.);
#1338=ADVANCED_FACE('',(#1184),#272,.F.);
#1339=ADVANCED_FACE('',(#1185),#273,.F.);
#1340=ADVANCED_FACE('',(#1186),#274,.F.);
#1341=ADVANCED_FACE('',(#1187),#275,.F.);
#1342=ADVANCED_FACE('',(#1188),#276,.F.);
#1343=ADVANCED_FACE('',(#1189),#277,.F.);
#1344=ADVANCED_FACE('',(#1190),#278,.F.);
#1345=ADVANCED_FACE('',(#1191),#279,.F.);
#1346=ADVANCED_FACE('',(#1192),#280,.F.);
#1347=ADVANCED_FACE('',(#1193),#281,.F.);
#1348=ADVANCED_FACE('',(#1194),#282,.F.);
#1349=ADVANCED_FACE('',(#1195,#1196,#1197,#1198,#1199,#1200,#1201,#1202,
#1203,#1204,#1205,#1206,#1207,#1208,#1209,#1210),#1285,.T.);
#1350=ADVANCED_FACE('',(#1211,#1212),#1286,.T.);
#1351=ADVANCED_FACE('',(#1213,#1214),#1287,.T.);
#1352=ADVANCED_FACE('',(#1215,#1216),#1288,.T.);
#1353=ADVANCED_FACE('',(#1217),#1289,.T.);
#1354=ADVANCED_FACE('',(#1218),#1290,.F.);
#1355=ADVANCED_FACE('',(#1219),#1291,.F.);
#1356=ADVANCED_FACE('',(#1220),#1292,.T.);
#1357=ADVANCED_FACE('',(#1221),#1293,.T.);
#1358=ADVANCED_FACE('',(#1222),#1294,.T.);
#1359=ADVANCED_FACE('',(#1223),#1295,.F.);
#1360=ADVANCED_FACE('',(#1224),#1296,.T.);
#1361=ADVANCED_FACE('',(#1225),#1297,.F.);
#1362=ADVANCED_FACE('',(#1226),#1298,.F.);
#1363=ADVANCED_FACE('',(#1227),#1299,.F.);
#1364=ADVANCED_FACE('',(#1228),#1300,.T.);
#1365=ADVANCED_FACE('',(#1229),#1301,.T.);
#1366=ADVANCED_FACE('',(#1230),#1302,.F.);
#1367=ADVANCED_FACE('',(#1231),#1303,.F.);
#1368=ADVANCED_FACE('',(#1232),#1304,.T.);
#1369=ADVANCED_FACE('',(#1233),#1305,.T.);
#1370=ADVANCED_FACE('',(#1234),#1306,.T.);
#1371=ADVANCED_FACE('',(#1235),#1307,.F.);
#1372=ADVANCED_FACE('',(#1236),#1308,.F.);
#1373=ADVANCED_FACE('',(#1237),#1309,.T.);
#1374=ADVANCED_FACE('',(#1238),#1310,.F.);
#1375=ADVANCED_FACE('',(#1239),#1311,.F.);
#1376=ADVANCED_FACE('',(#1240),#1312,.T.);
#1377=ADVANCED_FACE('',(#1241),#1313,.T.);
#1378=ADVANCED_FACE('',(#1242),#1314,.T.);
#1379=ADVANCED_FACE('',(#1243),#1315,.T.);
#1380=ADVANCED_FACE('',(#1244),#1316,.F.);
#1381=ADVANCED_FACE('',(#1245),#1317,.F.);
#1382=ADVANCED_FACE('',(#1246),#1318,.T.);
#1383=ADVANCED_FACE('',(#1247),#1319,.F.);
#1384=ADVANCED_FACE('',(#1248),#1320,.F.);
#1385=ADVANCED_FACE('',(#1249),#1321,.T.);
#1386=ADVANCED_FACE('',(#1250,#1251),#283,.F.);
#1387=ADVANCED_FACE('',(#1252,#1253),#284,.F.);
#1388=ADVANCED_FACE('',(#1254,#1255),#285,.F.);
#1389=ADVANCED_FACE('',(#1256,#1257,#1258,#1259,#1260,#1261,#1262,#1263,
#1264,#1265,#1266,#1267),#1322,.F.);
#1390=ADVANCED_FACE('',(#1268,#1269),#286,.F.);
#1391=ADVANCED_FACE('',(#1270,#1271),#287,.T.);
#1392=ADVANCED_FACE('',(#1272),#1323,.T.);
#1393=ADVANCED_FACE('',(#1273,#1274),#288,.T.);
#1394=ADVANCED_FACE('',(#1275),#1324,.T.);
#1395=ADVANCED_FACE('',(#1276,#1277),#289,.T.);
#1396=ADVANCED_FACE('',(#1278),#1325,.T.);
#1397=ADVANCED_FACE('',(#1279),#290,.T.);
#1398=ADVANCED_FACE('',(#1280),#291,.T.);
#1399=ADVANCED_FACE('',(#1281),#292,.T.);
#1400=ADVANCED_FACE('',(#1282),#293,.T.);
#1401=CLOSED_SHELL('',(#1326,#1327,#1328,#1329,#1330,#1331,#1332,#1333,
#1334,#1335,#1336,#1337,#1338,#1339,#1340,#1341,#1342,#1343,#1344,#1345,
#1346,#1347,#1348,#1349,#1350,#1351,#1352,#1353,#1354,#1355,#1356,#1357,
#1358,#1359,#1360,#1361,#1362,#1363,#1364,#1365,#1366,#1367,#1368,#1369,
#1370,#1371,#1372,#1373,#1374,#1375,#1376,#1377,#1378,#1379,#1380,#1381,
#1382,#1383,#1384,#1385,#1386,#1387,#1388,#1389,#1390,#1391,#1392,#1393,
#1394,#1395,#1396,#1397,#1398,#1399,#1400));
#1402=STYLED_ITEM('',(#1403),#1410);
#1403=PRESENTATION_STYLE_ASSIGNMENT((#1404));
#1404=SURFACE_STYLE_USAGE(.BOTH.,#1405);
#1405=SURFACE_SIDE_STYLE('',(#1406));
#1406=SURFACE_STYLE_FILL_AREA(#1407);
#1407=FILL_AREA_STYLE('',(#1408));
#1408=FILL_AREA_STYLE_COLOUR('',#1409);
#1409=COLOUR_RGB('',0.552941176470588,0.686274509803922,0.756862745098039);
#1410=MANIFOLD_SOLID_BREP('Part 2',#1401);
#1411=SHAPE_DEFINITION_REPRESENTATION(#2361,#1412);
#1412=SHAPE_REPRESENTATION('Part 2',(#1413),#2356);
#1413=AXIS2_PLACEMENT_3D('',#1958,#1553,#1554);
#1414=AXIS2_PLACEMENT_3D('',#1959,#1555,#1556);
#1415=AXIS2_PLACEMENT_3D('',#1960,#1557,#1558);
#1416=AXIS2_PLACEMENT_3D('',#1962,#1559,#1560);
#1417=AXIS2_PLACEMENT_3D('',#1965,#1561,#1562);
#1418=AXIS2_PLACEMENT_3D('',#1967,#1563,#1564);
#1419=AXIS2_PLACEMENT_3D('',#1969,#1565,#1566);
#1420=AXIS2_PLACEMENT_3D('',#1971,#1567,#1568);
#1421=AXIS2_PLACEMENT_3D('',#1972,#1569,#1570);
#1422=AXIS2_PLACEMENT_3D('',#1973,#1571,#1572);
#1423=AXIS2_PLACEMENT_3D('',#1975,#1573,#1574);
#1424=AXIS2_PLACEMENT_3D('',#1976,#1575,#1576);
#1425=AXIS2_PLACEMENT_3D('',#1977,#1577,#1578);
#1426=AXIS2_PLACEMENT_3D('',#1982,#1580,#1581);
#1427=AXIS2_PLACEMENT_3D('',#1985,#1583,#1584);
#1428=AXIS2_PLACEMENT_3D('',#1986,#1585,#1586);
#1429=AXIS2_PLACEMENT_3D('',#1990,#1588,#1589);
#1430=AXIS2_PLACEMENT_3D('',#1991,#1590,#1591);
#1431=AXIS2_PLACEMENT_3D('',#1992,#1592,#1593);
#1432=AXIS2_PLACEMENT_3D('',#1996,#1595,#1596);
#1433=AXIS2_PLACEMENT_3D('',#1997,#1597,#1598);
#1434=AXIS2_PLACEMENT_3D('',#1998,#1599,#1600);
#1435=AXIS2_PLACEMENT_3D('',#2002,#1602,#1603);
#1436=AXIS2_PLACEMENT_3D('',#2003,#1604,#1605);
#1437=AXIS2_PLACEMENT_3D('',#2004,#1606,#1607);
#1438=AXIS2_PLACEMENT_3D('',#2009,#1609,#1610);
#1439=AXIS2_PLACEMENT_3D('',#2012,#1612,#1613);
#1440=AXIS2_PLACEMENT_3D('',#2013,#1614,#1615);
#1441=AXIS2_PLACEMENT_3D('',#2017,#1617,#1618);
#1442=AXIS2_PLACEMENT_3D('',#2018,#1619,#1620);
#1443=AXIS2_PLACEMENT_3D('',#2019,#1621,#1622);
#1444=AXIS2_PLACEMENT_3D('',#2023,#1624,#1625);
#1445=AXIS2_PLACEMENT_3D('',#2024,#1626,#1627);
#1446=AXIS2_PLACEMENT_3D('',#2025,#1628,#1629);
#1447=AXIS2_PLACEMENT_3D('',#2029,#1631,#1632);
#1448=AXIS2_PLACEMENT_3D('',#2030,#1633,#1634);
#1449=AXIS2_PLACEMENT_3D('',#2031,#1635,#1636);
#1450=AXIS2_PLACEMENT_3D('',#2036,#1638,#1639);
#1451=AXIS2_PLACEMENT_3D('',#2039,#1641,#1642);
#1452=AXIS2_PLACEMENT_3D('',#2040,#1643,#1644);
#1453=AXIS2_PLACEMENT_3D('',#2044,#1646,#1647);
#1454=AXIS2_PLACEMENT_3D('',#2045,#1648,#1649);
#1455=AXIS2_PLACEMENT_3D('',#2046,#1650,#1651);
#1456=AXIS2_PLACEMENT_3D('',#2050,#1653,#1654);
#1457=AXIS2_PLACEMENT_3D('',#2051,#1655,#1656);
#1458=AXIS2_PLACEMENT_3D('',#2052,#1657,#1658);
#1459=AXIS2_PLACEMENT_3D('',#2056,#1660,#1661);
#1460=AXIS2_PLACEMENT_3D('',#2057,#1662,#1663);
#1461=AXIS2_PLACEMENT_3D('',#2060,#1665,#1666);
#1462=AXIS2_PLACEMENT_3D('',#2063,#1668,#1669);
#1463=AXIS2_PLACEMENT_3D('',#2066,#1671,#1672);
#1464=AXIS2_PLACEMENT_3D('',#2067,#1673,#1674);
#1465=AXIS2_PLACEMENT_3D('',#2070,#1676,#1677);
#1466=AXIS2_PLACEMENT_3D('',#2071,#1678,#1679);
#1467=AXIS2_PLACEMENT_3D('',#2074,#1681,#1682);
#1468=AXIS2_PLACEMENT_3D('',#2075,#1683,#1684);
#1469=AXIS2_PLACEMENT_3D('',#2076,#1685,#1686);
#1470=AXIS2_PLACEMENT_3D('',#2077,#1687,#1688);
#1471=AXIS2_PLACEMENT_3D('',#2078,#1689,#1690);
#1472=AXIS2_PLACEMENT_3D('',#2079,#1691,#1692);
#1473=AXIS2_PLACEMENT_3D('',#2080,#1693,#1694);
#1474=AXIS2_PLACEMENT_3D('',#2081,#1695,#1696);
#1475=AXIS2_PLACEMENT_3D('',#2082,#1697,#1698);
#1476=AXIS2_PLACEMENT_3D('',#2083,#1699,#1700);
#1477=AXIS2_PLACEMENT_3D('',#2084,#1701,#1702);
#1478=AXIS2_PLACEMENT_3D('',#2085,#1703,#1704);
#1479=AXIS2_PLACEMENT_3D('',#2086,#1705,#1706);
#1480=AXIS2_PLACEMENT_3D('',#2087,#1707,#1708);
#1481=AXIS2_PLACEMENT_3D('',#2089,#1709,#1710);
#1482=AXIS2_PLACEMENT_3D('',#2091,#1711,#1712);
#1483=AXIS2_PLACEMENT_3D('',#2093,#1713,#1714);
#1484=AXIS2_PLACEMENT_3D('',#2098,#1716,#1717);
#1485=AXIS2_PLACEMENT_3D('',#2102,#1719,#1720);
#1486=AXIS2_PLACEMENT_3D('',#2106,#1722,#1723);
#1487=AXIS2_PLACEMENT_3D('',#2110,#1725,#1726);
#1488=AXIS2_PLACEMENT_3D('',#2169,#1756,#1757);
#1489=AXIS2_PLACEMENT_3D('',#2170,#1758,#1759);
#1490=AXIS2_PLACEMENT_3D('',#2172,#1760,#1761);
#1491=AXIS2_PLACEMENT_3D('',#2173,#1762,#1763);
#1492=AXIS2_PLACEMENT_3D('',#2175,#1764,#1765);
#1493=AXIS2_PLACEMENT_3D('',#2176,#1766,#1767);
#1494=AXIS2_PLACEMENT_3D('',#2178,#1768,#1769);
#1495=AXIS2_PLACEMENT_3D('',#2184,#1773,#1774);
#1496=AXIS2_PLACEMENT_3D('',#2188,#1777,#1778);
#1497=AXIS2_PLACEMENT_3D('',#2192,#1781,#1782);
#1498=AXIS2_PLACEMENT_3D('',#2194,#1784,#1785);
#1499=AXIS2_PLACEMENT_3D('',#2200,#1789,#1790);
#1500=AXIS2_PLACEMENT_3D('',#2204,#1793,#1794);
#1501=AXIS2_PLACEMENT_3D('',#2210,#1798,#1799);
#1502=AXIS2_PLACEMENT_3D('',#2212,#1801,#1802);
#1503=AXIS2_PLACEMENT_3D('',#2218,#1806,#1807);
#1504=AXIS2_PLACEMENT_3D('',#2222,#1810,#1811);
#1505=AXIS2_PLACEMENT_3D('',#2228,#1815,#1816);
#1506=AXIS2_PLACEMENT_3D('',#2232,#1819,#1820);
#1507=AXIS2_PLACEMENT_3D('',#2234,#1822,#1823);
#1508=AXIS2_PLACEMENT_3D('',#2240,#1827,#1828);
#1509=AXIS2_PLACEMENT_3D('',#2244,#1831,#1832);
#1510=AXIS2_PLACEMENT_3D('',#2248,#1835,#1836);
#1511=AXIS2_PLACEMENT_3D('',#2250,#1838,#1839);
#1512=AXIS2_PLACEMENT_3D('',#2256,#1843,#1844);
#1513=AXIS2_PLACEMENT_3D('',#2260,#1847,#1848);
#1514=AXIS2_PLACEMENT_3D('',#2264,#1851,#1852);
#1515=AXIS2_PLACEMENT_3D('',#2266,#1854,#1855);
#1516=AXIS2_PLACEMENT_3D('',#2272,#1859,#1860);
#1517=AXIS2_PLACEMENT_3D('',#2276,#1863,#1864);
#1518=AXIS2_PLACEMENT_3D('',#2280,#1867,#1868);
#1519=AXIS2_PLACEMENT_3D('',#2282,#1870,#1871);
#1520=AXIS2_PLACEMENT_3D('',#2288,#1875,#1876);
#1521=AXIS2_PLACEMENT_3D('',#2292,#1879,#1880);
#1522=AXIS2_PLACEMENT_3D('',#2296,#1883,#1884);
#1523=AXIS2_PLACEMENT_3D('',#2298,#1886,#1887);
#1524=AXIS2_PLACEMENT_3D('',#2304,#1891,#1892);
#1525=AXIS2_PLACEMENT_3D('',#2310,#1896,#1897);
#1526=AXIS2_PLACEMENT_3D('',#2316,#1901,#1902);
#1527=AXIS2_PLACEMENT_3D('',#2322,#1906,#1907);
#1528=AXIS2_PLACEMENT_3D('',#2323,#1908,#1909);
#1529=AXIS2_PLACEMENT_3D('',#2325,#1910,#1911);
#1530=AXIS2_PLACEMENT_3D('',#2326,#1912,#1913);
#1531=AXIS2_PLACEMENT_3D('',#2328,#1914,#1915);
#1532=AXIS2_PLACEMENT_3D('',#2329,#1916,#1917);
#1533=AXIS2_PLACEMENT_3D('',#2331,#1918,#1919);
#1534=AXIS2_PLACEMENT_3D('',#2332,#1920,#1921);
#1535=AXIS2_PLACEMENT_3D('',#2334,#1922,#1923);
#1536=AXIS2_PLACEMENT_3D('',#2335,#1924,#1925);
#1537=AXIS2_PLACEMENT_3D('',#2336,#1926,#1927);
#1538=AXIS2_PLACEMENT_3D('',#2337,#1928,#1929);
#1539=AXIS2_PLACEMENT_3D('',#2338,#1930,#1931);
#1540=AXIS2_PLACEMENT_3D('',#2339,#1932,#1933);
#1541=AXIS2_PLACEMENT_3D('',#2340,#1934,#1935);
#1542=AXIS2_PLACEMENT_3D('',#2342,#1936,#1937);
#1543=AXIS2_PLACEMENT_3D('',#2343,#1938,#1939);
#1544=AXIS2_PLACEMENT_3D('',#2344,#1940,#1941);
#1545=AXIS2_PLACEMENT_3D('',#2346,#1942,#1943);
#1546=AXIS2_PLACEMENT_3D('',#2347,#1944,#1945);
#1547=AXIS2_PLACEMENT_3D('',#2348,#1946,#1947);
#1548=AXIS2_PLACEMENT_3D('',#2350,#1948,#1949);
#1549=AXIS2_PLACEMENT_3D('',#2351,#1950,#1951);
#1550=AXIS2_PLACEMENT_3D('',#2352,#1952,#1953);
#1551=AXIS2_PLACEMENT_3D('',#2353,#1954,#1955);
#1552=AXIS2_PLACEMENT_3D('',#2354,#1956,#1957);
#1553=DIRECTION('',(0.,0.,1.));
#1554=DIRECTION('',(1.,0.,0.));
#1555=DIRECTION('',(0.,0.,1.));
#1556=DIRECTION('',(1.,0.,0.));
#1557=DIRECTION('',(0.,0.,1.));
#1558=DIRECTION('',(1.,0.,0.));
#1559=DIRECTION('',(0.,0.,1.));
#1560=DIRECTION('',(1.,0.,0.));
#1561=DIRECTION('',(0.,0.,1.));
#1562=DIRECTION('',(1.,0.,0.));
#1563=DIRECTION('',(0.,0.,1.));
#1564=DIRECTION('',(1.,0.,0.));
#1565=DIRECTION('',(0.,0.,1.));
#1566=DIRECTION('',(1.,0.,0.));
#1567=DIRECTION('',(0.,0.,1.));
#1568=DIRECTION('',(1.,0.,0.));
#1569=DIRECTION('',(0.,0.,-1.));
#1570=DIRECTION('',(-1.,0.,0.));
#1571=DIRECTION('',(0.,0.,1.));
#1572=DIRECTION('',(1.,0.,0.));
#1573=DIRECTION('',(0.,0.,1.));
#1574=DIRECTION('',(1.,0.,0.));
#1575=DIRECTION('',(0.,0.,-1.));
#1576=DIRECTION('',(-1.,0.,0.));
#1577=DIRECTION('',(0.,0.,1.));
#1578=DIRECTION('',(1.,0.,0.));
#1579=DIRECTION('',(0.,0.,-1.));
#1580=DIRECTION('',(0.,0.,1.));
#1581=DIRECTION('',(1.,0.,0.));
#1582=DIRECTION('',(0.,0.,-1.));
#1583=DIRECTION('',(0.,0.,-1.));
#1584=DIRECTION('',(-1.,0.,0.));
#1585=DIRECTION('',(0.,0.,1.));
#1586=DIRECTION('',(1.,0.,0.));
#1587=DIRECTION('',(0.,0.,-1.));
#1588=DIRECTION('',(0.,0.,1.));
#1589=DIRECTION('',(1.,0.,0.));
#1590=DIRECTION('',(0.,0.,-1.));
#1591=DIRECTION('',(-1.,0.,0.));
#1592=DIRECTION('',(0.,0.,1.));
#1593=DIRECTION('',(1.,0.,0.));
#1594=DIRECTION('',(0.,0.,-1.));
#1595=DIRECTION('',(0.,0.,1.));
#1596=DIRECTION('',(1.,0.,0.));
#1597=DIRECTION('',(0.,0.,-1.));
#1598=DIRECTION('',(-1.,0.,0.));
#1599=DIRECTION('',(0.,0.,1.));
#1600=DIRECTION('',(1.,0.,0.));
#1601=DIRECTION('',(0.,0.,-1.));
#1602=DIRECTION('',(0.,0.,1.));
#1603=DIRECTION('',(1.,0.,0.));
#1604=DIRECTION('',(0.,0.,-1.));
#1605=DIRECTION('',(-1.,0.,0.));
#1606=DIRECTION('',(0.,0.,1.));
#1607=DIRECTION('',(1.,0.,0.));
#1608=DIRECTION('',(0.,0.,-1.));
#1609=DIRECTION('',(0.,0.,1.));
#1610=DIRECTION('',(1.,0.,0.));
#1611=DIRECTION('',(0.,0.,-1.));
#1612=DIRECTION('',(0.,0.,-1.));
#1613=DIRECTION('',(-1.,0.,0.));
#1614=DIRECTION('',(0.,0.,1.));
#1615=DIRECTION('',(1.,0.,0.));
#1616=DIRECTION('',(0.,0.,-1.));
#1617=DIRECTION('',(0.,0.,1.));
#1618=DIRECTION('',(1.,0.,0.));
#1619=DIRECTION('',(0.,0.,-1.));
#1620=DIRECTION('',(-1.,0.,0.));
#1621=DIRECTION('',(0.,0.,1.));
#1622=DIRECTION('',(1.,0.,0.));
#1623=DIRECTION('',(0.,0.,-1.));
#1624=DIRECTION('',(0.,0.,1.));
#1625=DIRECTION('',(1.,0.,0.));
#1626=DIRECTION('',(0.,0.,-1.));
#1627=DIRECTION('',(-1.,0.,0.));
#1628=DIRECTION('',(0.,0.,1.));
#1629=DIRECTION('',(1.,0.,0.));
#1630=DIRECTION('',(0.,0.,-1.));
#1631=DIRECTION('',(0.,0.,1.));
#1632=DIRECTION('',(1.,0.,0.));
#1633=DIRECTION('',(0.,0.,-1.));
#1634=DIRECTION('',(-1.,0.,0.));
#1635=DIRECTION('',(0.,0.,1.));
#1636=DIRECTION('',(1.,0.,0.));
#1637=DIRECTION('',(0.,0.,-1.));
#1638=DIRECTION('',(0.,0.,1.));
#1639=DIRECTION('',(1.,0.,0.));
#1640=DIRECTION('',(0.,0.,-1.));
#1641=DIRECTION('',(0.,0.,-1.));
#1642=DIRECTION('',(-1.,0.,0.));
#1643=DIRECTION('',(0.,0.,1.));
#1644=DIRECTION('',(1.,0.,0.));
#1645=DIRECTION('',(0.,0.,-1.));
#1646=DIRECTION('',(0.,0.,1.));
#1647=DIRECTION('',(1.,0.,0.));
#1648=DIRECTION('',(0.,0.,-1.));
#1649=DIRECTION('',(-1.,0.,0.));
#1650=DIRECTION('',(0.,0.,1.));
#1651=DIRECTION('',(1.,0.,0.));
#1652=DIRECTION('',(0.,0.,-1.));
#1653=DIRECTION('',(0.,0.,1.));
#1654=DIRECTION('',(1.,0.,0.));
#1655=DIRECTION('',(0.,0.,-1.));
#1656=DIRECTION('',(-1.,0.,0.));
#1657=DIRECTION('',(0.,0.,1.));
#1658=DIRECTION('',(1.,0.,0.));
#1659=DIRECTION('',(0.,0.,-1.));
#1660=DIRECTION('',(0.,0.,1.));
#1661=DIRECTION('',(1.,0.,0.));
#1662=DIRECTION('',(0.,0.,-1.));
#1663=DIRECTION('',(-1.,0.,0.));
#1664=DIRECTION('',(0.,0.,-1.));
#1665=DIRECTION('',(0.,0.,1.));
#1666=DIRECTION('',(1.,0.,0.));
#1667=DIRECTION('',(0.,0.,-1.));
#1668=DIRECTION('',(0.,0.,-1.));
#1669=DIRECTION('',(-1.,0.,0.));
#1670=DIRECTION('',(0.,0.,-1.));
#1671=DIRECTION('',(0.,0.,1.));
#1672=DIRECTION('',(1.,0.,0.));
#1673=DIRECTION('',(0.,0.,-1.));
#1674=DIRECTION('',(-1.,0.,0.));
#1675=DIRECTION('',(0.,0.,-1.));
#1676=DIRECTION('',(0.,0.,1.));
#1677=DIRECTION('',(1.,0.,0.));
#1678=DIRECTION('',(0.,0.,-1.));
#1679=DIRECTION('',(-1.,0.,0.));
#1680=DIRECTION('',(0.,0.,-1.));
#1681=DIRECTION('',(0.,0.,1.));
#1682=DIRECTION('',(1.,0.,0.));
#1683=DIRECTION('',(0.,0.,-1.));
#1684=DIRECTION('',(-1.,0.,0.));
#1685=DIRECTION('',(0.,0.,1.));
#1686=DIRECTION('',(1.,0.,0.));
#1687=DIRECTION('',(0.,0.,1.));
#1688=DIRECTION('',(1.,0.,0.));
#1689=DIRECTION('',(0.,0.,-1.));
#1690=DIRECTION('',(-1.,0.,0.));
#1691=DIRECTION('',(0.,0.,1.));
#1692=DIRECTION('',(1.,0.,0.));
#1693=DIRECTION('',(0.,0.,1.));
#1694=DIRECTION('',(1.,0.,0.));
#1695=DIRECTION('',(0.,0.,-1.));
#1696=DIRECTION('',(-1.,0.,0.));
#1697=DIRECTION('',(0.,0.,1.));
#1698=DIRECTION('',(1.,0.,0.));
#1699=DIRECTION('',(0.,0.,1.));
#1700=DIRECTION('',(1.,0.,0.));
#1701=DIRECTION('',(0.,0.,-1.));
#1702=DIRECTION('',(-1.,0.,0.));
#1703=DIRECTION('',(0.,0.,1.));
#1704=DIRECTION('',(1.,0.,0.));
#1705=DIRECTION('',(0.,0.,1.));
#1706=DIRECTION('',(1.,0.,0.));
#1707=DIRECTION('',(0.,0.,1.));
#1708=DIRECTION('',(1.,0.,0.));
#1709=DIRECTION('',(0.,0.,1.));
#1710=DIRECTION('',(1.,0.,0.));
#1711=DIRECTION('',(0.,0.,1.));
#1712=DIRECTION('',(1.,0.,0.));
#1713=DIRECTION('',(0.,0.,1.));
#1714=DIRECTION('',(1.,0.,0.));
#1715=DIRECTION('',(0.,-1.,0.));
#1716=DIRECTION('',(0.,0.,1.));
#1717=DIRECTION('',(1.,0.,0.));
#1718=DIRECTION('',(1.,0.,0.));
#1719=DIRECTION('',(0.,0.,1.));
#1720=DIRECTION('',(1.,0.,0.));
#1721=DIRECTION('',(0.,-1.,0.));
#1722=DIRECTION('',(0.,0.,1.));
#1723=DIRECTION('',(1.,0.,0.));
#1724=DIRECTION('',(1.,0.,0.));
#1725=DIRECTION('',(0.,0.,1.));
#1726=DIRECTION('',(1.,0.,0.));
#1727=DIRECTION('',(0.,-1.,0.));
#1728=DIRECTION('',(-1.,0.,0.));
#1729=DIRECTION('',(0.,-1.,0.));
#1730=DIRECTION('',(-1.,0.,0.));
#1731=DIRECTION('',(-1.,0.,0.));
#1732=DIRECTION('',(0.,-1.,0.));
#1733=DIRECTION('',(-1.,0.,0.));
#1734=DIRECTION('',(0.,-1.,0.));
#1735=DIRECTION('',(0.,-1.,0.));
#1736=DIRECTION('',(-1.,0.,0.));
#1737=DIRECTION('',(0.,-1.,0.));
#1738=DIRECTION('',(-1.,0.,0.));
#1739=DIRECTION('',(0.,-1.,0.));
#1740=DIRECTION('',(-1.,0.,0.));
#1741=DIRECTION('',(-0.0132308078997938,-0.999912469030324,0.));
#1742=DIRECTION('',(0.,-1.,0.));
#1743=DIRECTION('',(-1.,0.,0.));
#1744=DIRECTION('',(-1.,0.,0.));
#1745=DIRECTION('',(0.,-1.,0.));
#1746=DIRECTION('',(1.,0.,0.));
#1747=DIRECTION('',(0.,-1.,0.));
#1748=DIRECTION('',(-1.,0.,0.));
#1749=DIRECTION('',(0.,-1.,0.));
#1750=DIRECTION('',(-1.,0.,0.));
#1751=DIRECTION('',(0.,-1.,0.));
#1752=DIRECTION('',(-1.,0.,0.));
#1753=DIRECTION('',(0.,-1.,0.));
#1754=DIRECTION('',(-1.,0.,0.));
#1755=DIRECTION('',(0.,-1.,0.));
#1756=DIRECTION('',(0.,0.,1.));
#1757=DIRECTION('',(1.,0.,0.));
#1758=DIRECTION('',(0.,0.,1.));
#1759=DIRECTION('',(1.,0.,0.));
#1760=DIRECTION('',(0.,0.,1.));
#1761=DIRECTION('',(1.,0.,0.));
#1762=DIRECTION('',(0.,0.,1.));
#1763=DIRECTION('',(1.,0.,0.));
#1764=DIRECTION('',(0.,0.,1.));
#1765=DIRECTION('',(1.,0.,0.));
#1766=DIRECTION('',(0.,0.,1.));
#1767=DIRECTION('',(1.,0.,0.));
#1768=DIRECTION('',(1.,0.,0.));
#1769=DIRECTION('',(0.,0.,-1.));
#1770=DIRECTION('',(0.,-1.,0.));
#1771=DIRECTION('',(0.,0.,-1.));
#1772=DIRECTION('',(0.,0.,-1.));
#1773=DIRECTION('',(0.,-1.,0.));
#1774=DIRECTION('',(0.,0.,-1.));
#1775=DIRECTION('',(-1.,0.,0.));
#1776=DIRECTION('',(0.,0.,-1.));
#1777=DIRECTION('',(1.,0.,0.));
#1778=DIRECTION('',(0.,0.,-1.));
#1779=DIRECTION('',(0.,-1.,0.));
#1780=DIRECTION('',(0.,0.,-1.));
#1781=DIRECTION('',(0.,-1.,0.));
#1782=DIRECTION('',(0.,0.,-1.));
#1783=DIRECTION('',(-1.,0.,0.));
#1784=DIRECTION('',(1.,0.,0.));
#1785=DIRECTION('',(0.,0.,-1.));
#1786=DIRECTION('',(0.,-1.,0.));
#1787=DIRECTION('',(0.,0.,-1.));
#1788=DIRECTION('',(0.,0.,-1.));
#1789=DIRECTION('',(0.,1.,0.));
#1790=DIRECTION('',(0.,0.,1.));
#1791=DIRECTION('',(1.,0.,0.));
#1792=DIRECTION('',(0.,0.,-1.));
#1793=DIRECTION('',(1.,0.,0.));
#1794=DIRECTION('',(0.,0.,-1.));
#1795=DIRECTION('',(0.,-1.,0.));
#1796=DIRECTION('',(0.,0.,-1.));
#1797=DIRECTION('',(0.,0.,-1.));
#1798=DIRECTION('',(0.,-1.,0.));
#1799=DIRECTION('',(0.,0.,-1.));
#1800=DIRECTION('',(-1.,0.,0.));
#1801=DIRECTION('',(0.,-1.,0.));
#1802=DIRECTION('',(0.,0.,-1.));
#1803=DIRECTION('',(-1.,0.,0.));
#1804=DIRECTION('',(0.,0.,-1.));
#1805=DIRECTION('',(0.,0.,-1.));
#1806=DIRECTION('',(1.,0.,0.));
#1807=DIRECTION('',(0.,0.,-1.));
#1808=DIRECTION('',(0.,-1.,0.));
#1809=DIRECTION('',(0.,0.,-1.));
#1810=DIRECTION('',(0.999912469030324,-0.0132308078997938,0.));
#1811=DIRECTION('',(0.0132308078997938,0.999912469030324,0.));
#1812=DIRECTION('',(-0.0132308078997938,-0.999912469030324,0.));
#1813=DIRECTION('',(0.,0.,-1.));
#1814=DIRECTION('',(0.,0.,-1.));
#1815=DIRECTION('',(0.,-1.,0.));
#1816=DIRECTION('',(0.,0.,-1.));
#1817=DIRECTION('',(-1.,0.,0.));
#1818=DIRECTION('',(0.,0.,-1.));
#1819=DIRECTION('',(1.,0.,0.));
#1820=DIRECTION('',(0.,0.,-1.));
#1821=DIRECTION('',(0.,-1.,0.));
#1822=DIRECTION('',(0.,-1.,0.));
#1823=DIRECTION('',(0.,0.,-1.));
#1824=DIRECTION('',(-1.,0.,0.));
#1825=DIRECTION('',(0.,0.,-1.));
#1826=DIRECTION('',(0.,0.,-1.));
#1827=DIRECTION('',(1.,0.,0.));
#1828=DIRECTION('',(0.,0.,-1.));
#1829=DIRECTION('',(0.,-1.,0.));
#1830=DIRECTION('',(0.,0.,-1.));
#1831=DIRECTION('',(0.,-1.,0.));
#1832=DIRECTION('',(0.,0.,-1.));
#1833=DIRECTION('',(-1.,0.,0.));
#1834=DIRECTION('',(0.,0.,-1.));
#1835=DIRECTION('',(1.,0.,0.));
#1836=DIRECTION('',(0.,0.,-1.));
#1837=DIRECTION('',(0.,-1.,0.));
#1838=DIRECTION('',(1.,0.,0.));
#1839=DIRECTION('',(0.,0.,-1.));
#1840=DIRECTION('',(0.,-1.,0.));
#1841=DIRECTION('',(0.,0.,-1.));
#1842=DIRECTION('',(0.,0.,-1.));
#1843=DIRECTION('',(0.,-1.,0.));
#1844=DIRECTION('',(0.,0.,-1.));
#1845=DIRECTION('',(-1.,0.,0.));
#1846=DIRECTION('',(0.,0.,-1.));
#1847=DIRECTION('',(1.,0.,0.));
#1848=DIRECTION('',(0.,0.,-1.));
#1849=DIRECTION('',(0.,-1.,0.));
#1850=DIRECTION('',(0.,0.,-1.));
#1851=DIRECTION('',(0.,-1.,0.));
#1852=DIRECTION('',(0.,0.,-1.));
#1853=DIRECTION('',(-1.,0.,0.));
#1854=DIRECTION('',(0.,-1.,0.));
#1855=DIRECTION('',(0.,0.,-1.));
#1856=DIRECTION('',(-1.,0.,0.));
#1857=DIRECTION('',(0.,0.,-1.));
#1858=DIRECTION('',(0.,0.,-1.));
#1859=DIRECTION('',(1.,0.,0.));
#1860=DIRECTION('',(0.,0.,-1.));
#1861=DIRECTION('',(0.,-1.,0.));
#1862=DIRECTION('',(0.,0.,-1.));
#1863=DIRECTION('',(0.,-1.,0.));
#1864=DIRECTION('',(0.,0.,-1.));
#1865=DIRECTION('',(-1.,0.,0.));
#1866=DIRECTION('',(0.,0.,-1.));
#1867=DIRECTION('',(1.,0.,0.));
#1868=DIRECTION('',(0.,0.,-1.));
#1869=DIRECTION('',(0.,-1.,0.));
#1870=DIRECTION('',(0.,-1.,0.));
#1871=DIRECTION('',(0.,0.,-1.));
#1872=DIRECTION('',(-1.,0.,0.));
#1873=DIRECTION('',(0.,0.,-1.));
#1874=DIRECTION('',(0.,0.,-1.));
#1875=DIRECTION('',(1.,0.,0.));
#1876=DIRECTION('',(0.,0.,-1.));
#1877=DIRECTION('',(0.,-1.,0.));
#1878=DIRECTION('',(0.,0.,-1.));
#1879=DIRECTION('',(0.,-1.,0.));
#1880=DIRECTION('',(0.,0.,-1.));
#1881=DIRECTION('',(-1.,0.,0.));
#1882=DIRECTION('',(0.,0.,-1.));
#1883=DIRECTION('',(1.,0.,0.));
#1884=DIRECTION('',(0.,0.,-1.));
#1885=DIRECTION('',(0.,-1.,0.));
#1886=DIRECTION('',(1.,0.,0.));
#1887=DIRECTION('',(0.,0.,-1.));
#1888=DIRECTION('',(0.,-1.,0.));
#1889=DIRECTION('',(0.,0.,-1.));
#1890=DIRECTION('',(0.,0.,-1.));
#1891=DIRECTION('',(0.,1.,0.));
#1892=DIRECTION('',(0.,0.,1.));
#1893=DIRECTION('',(1.,0.,0.));
#1894=DIRECTION('',(0.,0.,-1.));
#1895=DIRECTION('',(0.,0.,-1.));
#1896=DIRECTION('',(1.,0.,0.));
#1897=DIRECTION('',(0.,0.,-1.));
#1898=DIRECTION('',(0.,0.,-1.));
#1899=DIRECTION('',(0.,-1.,0.));
#1900=DIRECTION('',(0.,0.,-1.));
#1901=DIRECTION('',(0.,1.,0.));
#1902=DIRECTION('',(0.,0.,1.));
#1903=DIRECTION('',(0.,0.,-1.));
#1904=DIRECTION('',(1.,0.,0.));
#1905=DIRECTION('',(0.,0.,-1.));
#1906=DIRECTION('',(0.,0.,-1.));
#1907=DIRECTION('',(-1.,0.,0.));
#1908=DIRECTION('',(0.,0.,1.));
#1909=DIRECTION('',(1.,0.,0.));
#1910=DIRECTION('',(0.,0.,-1.));
#1911=DIRECTION('',(-1.,0.,0.));
#1912=DIRECTION('',(0.,0.,1.));
#1913=DIRECTION('',(1.,0.,0.));
#1914=DIRECTION('',(0.,0.,-1.));
#1915=DIRECTION('',(-1.,0.,0.));
#1916=DIRECTION('',(0.,0.,1.));
#1917=DIRECTION('',(1.,0.,0.));
#1918=DIRECTION('',(0.,0.,1.));
#1919=DIRECTION('',(1.,0.,0.));
#1920=DIRECTION('',(0.,0.,1.));
#1921=DIRECTION('',(1.,0.,0.));
#1922=DIRECTION('',(0.,0.,1.));
#1923=DIRECTION('',(1.,0.,0.));
#1924=DIRECTION('',(0.,0.,1.));
#1925=DIRECTION('',(1.,0.,0.));
#1926=DIRECTION('',(0.,0.,1.));
#1927=DIRECTION('',(1.,0.,0.));
#1928=DIRECTION('',(0.,0.,1.));
#1929=DIRECTION('',(1.,0.,0.));
#1930=DIRECTION('',(0.,0.,-1.));
#1931=DIRECTION('',(-1.,0.,0.));
#1932=DIRECTION('',(0.,0.,-1.));
#1933=DIRECTION('',(-1.,0.,0.));
#1934=DIRECTION('',(0.,0.,1.));
#1935=DIRECTION('',(1.,0.,0.));
#1936=DIRECTION('',(0.,0.,1.));
#1937=DIRECTION('',(1.,0.,0.));
#1938=DIRECTION('',(0.,0.,-1.));
#1939=DIRECTION('',(-1.,0.,0.));
#1940=DIRECTION('',(0.,0.,1.));
#1941=DIRECTION('',(1.,0.,0.));
#1942=DIRECTION('',(0.,0.,1.));
#1943=DIRECTION('',(1.,0.,0.));
#1944=DIRECTION('',(0.,0.,-1.));
#1945=DIRECTION('',(-1.,0.,0.));
#1946=DIRECTION('',(0.,0.,1.));
#1947=DIRECTION('',(1.,0.,0.));
#1948=DIRECTION('',(0.,0.,1.));
#1949=DIRECTION('',(1.,0.,0.));
#1950=DIRECTION('',(0.,0.,-1.));
#1951=DIRECTION('',(-1.,0.,0.));
#1952=DIRECTION('',(0.,0.,1.));
#1953=DIRECTION('',(1.,0.,0.));
#1954=DIRECTION('',(0.,0.,1.));
#1955=DIRECTION('',(1.,0.,0.));
#1956=DIRECTION('',(0.,0.,-1.));
#1957=DIRECTION('',(-1.,0.,0.));
#1958=CARTESIAN_POINT('',(0.,0.,0.));
#1959=CARTESIAN_POINT('',(0.14525,-0.0825,0.003));
#1960=CARTESIAN_POINT('',(0.107202754408107,-0.0690050393845422,0.003));
#1961=CARTESIAN_POINT('',(0.108702754408107,-0.0690050393845422,0.003));
#1962=CARTESIAN_POINT('',(0.107761404473655,-0.0659279390648856,0.003));
#1963=CARTESIAN_POINT('',(0.109693623023435,-0.0664376472104616,0.003));
#1964=CARTESIAN_POINT('',(0.105772895198376,-0.0661256807648666,0.003));
#1965=CARTESIAN_POINT('',(0.104599180068133,-0.067850840211698,0.003));
#1966=CARTESIAN_POINT('',(0.104593484512888,-0.0699374043455324,0.003));
#1967=CARTESIAN_POINT('',(0.105758450741541,-0.0715063073671779,0.003));
#1968=CARTESIAN_POINT('',(0.107494938457117,-0.0724025291136684,0.003));
#1969=CARTESIAN_POINT('',(0.109102580366724,-0.0713866480053065,0.003));
#1970=CARTESIAN_POINT('',(0.110554527172026,-0.0701584878323556,0.003));
#1971=CARTESIAN_POINT('',(0.110054346531018,-0.0683142008682672,0.003));
#1972=CARTESIAN_POINT('',(0.107202754408107,-0.0690050393845422,0.005));
#1973=CARTESIAN_POINT('',(0.107202754408107,-0.0690050393845422,0.005));
#1974=CARTESIAN_POINT('',(0.108702754408107,-0.0690050393845422,0.005));
#1975=CARTESIAN_POINT('',(0.14525,-0.0825,0.005));
#1976=CARTESIAN_POINT('',(0.117172737814728,-0.0606600738570473,0.005));
#1977=CARTESIAN_POINT('',(0.117172737814728,-0.0606600738570473,0.003));
#1978=CARTESIAN_POINT('',(0.115828719669403,-0.0616003846567936,0.003));
#1979=CARTESIAN_POINT('',(0.117811902584946,-0.059149432413291,0.003));
#1980=CARTESIAN_POINT('',(0.115828719669403,-0.0616003846567936,0.005));
#1981=CARTESIAN_POINT('',(0.115828719669403,-0.0616003846567936,0.005));
#1982=CARTESIAN_POINT('',(0.117172737814728,-0.0606600738570473,0.005));
#1983=CARTESIAN_POINT('',(0.117811902584946,-0.059149432413291,0.005));
#1984=CARTESIAN_POINT('',(0.117811902584946,-0.059149432413291,0.005));
#1985=CARTESIAN_POINT('',(0.114264649328918,-0.0612395103146395,0.005));
#1986=CARTESIAN_POINT('',(0.114264649328918,-0.0612395103146395,0.003));
#1987=CARTESIAN_POINT('',(0.112927533702499,-0.0603514404286522,0.003));
#1988=CARTESIAN_POINT('',(0.112927533702499,-0.0603514404286522,0.005));
#1989=CARTESIAN_POINT('',(0.112927533702499,-0.0603514404286522,0.005));
#1990=CARTESIAN_POINT('',(0.114264649328918,-0.0612395103146395,0.005));
#1991=CARTESIAN_POINT('',(0.112749499111684,-0.0588015913963318,0.005));
#1992=CARTESIAN_POINT('',(0.112749499111684,-0.0588015913963318,0.003));
#1993=CARTESIAN_POINT('',(0.113225845658887,-0.0573160536803921,0.003));
#1994=CARTESIAN_POINT('',(0.113225845658887,-0.0573160536803921,0.005));
#1995=CARTESIAN_POINT('',(0.113225845658887,-0.0573160536803921,0.005));
#1996=CARTESIAN_POINT('',(0.112749499111684,-0.0588015913963318,0.005));
#1997=CARTESIAN_POINT('',(0.11455758605862,-0.0564429944376574,0.005));
#1998=CARTESIAN_POINT('',(0.11455758605862,-0.0564429944376574,0.003));
#1999=CARTESIAN_POINT('',(0.116140415880132,-0.0566173925160285,0.003));
#2000=CARTESIAN_POINT('',(0.116140415880132,-0.0566173925160285,0.005));
#2001=CARTESIAN_POINT('',(0.116140415880132,-0.0566173925160285,0.005));
#2002=CARTESIAN_POINT('',(0.11455758605862,-0.0564429944376574,0.005));
#2003=CARTESIAN_POINT('',(0.187089440185176,-0.0997091037130145,0.005));
#2004=CARTESIAN_POINT('',(0.187089440185176,-0.0997091037130145,0.003));
#2005=CARTESIAN_POINT('',(0.187929668273027,-0.0985888972456993,0.003));
#2006=CARTESIAN_POINT('',(0.187627766991138,-0.101001794712059,0.003));
#2007=CARTESIAN_POINT('',(0.187929668273027,-0.0985888972456993,0.005));
#2008=CARTESIAN_POINT('',(0.187929668273027,-0.0985888972456993,0.005));
#2009=CARTESIAN_POINT('',(0.187089440185176,-0.0997091037130145,0.005));
#2010=CARTESIAN_POINT('',(0.187627766991138,-0.101001794712059,0.005));
#2011=CARTESIAN_POINT('',(0.187627766991138,-0.101001794712059,0.005));
#2012=CARTESIAN_POINT('',(0.188988928982394,-0.0978006558160242,0.005));
#2013=CARTESIAN_POINT('',(0.188988928982394,-0.0978006558160242,0.003));
#2014=CARTESIAN_POINT('',(0.190281477594854,-0.0980702404711826,0.003));
#2015=CARTESIAN_POINT('',(0.190281477594854,-0.0980702404711826,0.005));
#2016=CARTESIAN_POINT('',(0.190281477594854,-0.0980702404711826,0.005));
#2017=CARTESIAN_POINT('',(0.188988928982394,-0.0978006558160242,0.005));
#2018=CARTESIAN_POINT('',(0.191257459745183,-0.0988848020002971,0.005));
#2019=CARTESIAN_POINT('',(0.191257459745183,-0.0988848020002971,0.003));
#2020=CARTESIAN_POINT('',(0.191471763283049,-0.100137848542184,0.003));
#2021=CARTESIAN_POINT('',(0.191471763283049,-0.100137848542184,0.005));
#2022=CARTESIAN_POINT('',(0.191471763283049,-0.100137848542184,0.005));
#2023=CARTESIAN_POINT('',(0.191257459745183,-0.0988848020002971,0.005));
#2024=CARTESIAN_POINT('',(0.191000026267156,-0.101376164251513,0.005));
#2025=CARTESIAN_POINT('',(0.191000026267156,-0.101376164251513,0.003));
#2026=CARTESIAN_POINT('',(0.189810312038297,-0.101959723727306,0.003));
#2027=CARTESIAN_POINT('',(0.189810312038297,-0.101959723727306,0.005));
#2028=CARTESIAN_POINT('',(0.189810312038297,-0.101959723727306,0.005));
#2029=CARTESIAN_POINT('',(0.191000026267156,-0.101376164251513,0.005));
#2030=CARTESIAN_POINT('',(0.181357474473091,-0.102379129994213,0.005));
#2031=CARTESIAN_POINT('',(0.181357474473091,-0.102379129994213,0.003));
#2032=CARTESIAN_POINT('',(0.183023780425028,-0.102916754431697,0.003));
#2033=CARTESIAN_POINT('',(0.17962841887599,-0.102654778871179,0.003));
#2034=CARTESIAN_POINT('',(0.183023780425028,-0.102916754431697,0.005));
#2035=CARTESIAN_POINT('',(0.183023780425028,-0.102916754431697,0.005));
#2036=CARTESIAN_POINT('',(0.181357474473091,-0.102379129994213,0.005));
#2037=CARTESIAN_POINT('',(0.17962841887599,-0.102654778871179,0.005));
#2038=CARTESIAN_POINT('',(0.17962841887599,-0.102654778871179,0.005));
#2039=CARTESIAN_POINT('',(0.183301057494283,-0.104547560501365,0.005));
#2040=CARTESIAN_POINT('',(0.183301057494283,-0.104547560501365,0.003));
#2041=CARTESIAN_POINT('',(0.183657009561735,-0.106163019920749,0.003));
#2042=CARTESIAN_POINT('',(0.183657009561735,-0.106163019920749,0.005));
#2043=CARTESIAN_POINT('',(0.183657009561735,-0.106163019920749,0.005));
#2044=CARTESIAN_POINT('',(0.183301057494283,-0.104547560501365,0.005));
#2045=CARTESIAN_POINT('',(0.182357788251508,-0.107257706365685,0.005));
#2046=CARTESIAN_POINT('',(0.182357788251508,-0.107257706365685,0.003));
#2047=CARTESIAN_POINT('',(0.180855938852093,-0.108051912136974,0.003));
#2048=CARTESIAN_POINT('',(0.180855938852093,-0.108051912136974,0.005));
#2049=CARTESIAN_POINT('',(0.180855938852093,-0.108051912136974,0.005));
#2050=CARTESIAN_POINT('',(0.182357788251508,-0.107257706365685,0.005));
#2051=CARTESIAN_POINT('',(0.179224418894222,-0.107397622186128,0.005));
#2052=CARTESIAN_POINT('',(0.179224418894222,-0.107397622186128,0.003));
#2053=CARTESIAN_POINT('',(0.178404558007738,-0.105842700696301,0.003));
#2054=CARTESIAN_POINT('',(0.178404558007738,-0.105842700696301,0.005));
#2055=CARTESIAN_POINT('',(0.178404558007738,-0.105842700696301,0.005));
#2056=CARTESIAN_POINT('',(0.179224418894222,-0.107397622186128,0.005));
#2057=CARTESIAN_POINT('',(0.107761404473655,-0.0659279390648856,0.005));
#2058=CARTESIAN_POINT('',(0.109693623023435,-0.0664376472104616,0.005));
#2059=CARTESIAN_POINT('',(0.109693623023435,-0.0664376472104616,0.005));
#2060=CARTESIAN_POINT('',(0.107761404473655,-0.0659279390648856,0.005));
#2061=CARTESIAN_POINT('',(0.105772895198376,-0.0661256807648666,0.005));
#2062=CARTESIAN_POINT('',(0.105772895198376,-0.0661256807648666,0.005));
#2063=CARTESIAN_POINT('',(0.110054346531018,-0.0683142008682672,0.005));
#2064=CARTESIAN_POINT('',(0.110554527172026,-0.0701584878323556,0.005));
#2065=CARTESIAN_POINT('',(0.110554527172026,-0.0701584878323556,0.005));
#2066=CARTESIAN_POINT('',(0.110054346531018,-0.0683142008682672,0.005));
#2067=CARTESIAN_POINT('',(0.109102580366724,-0.0713866480053065,0.005));
#2068=CARTESIAN_POINT('',(0.107494938457117,-0.0724025291136684,0.005));
#2069=CARTESIAN_POINT('',(0.107494938457117,-0.0724025291136684,0.005));
#2070=CARTESIAN_POINT('',(0.109102580366724,-0.0713866480053065,0.005));
#2071=CARTESIAN_POINT('',(0.105758450741541,-0.0715063073671779,0.005));
#2072=CARTESIAN_POINT('',(0.104593484512888,-0.0699374043455324,0.005));
#2073=CARTESIAN_POINT('',(0.104593484512888,-0.0699374043455324,0.005));
#2074=CARTESIAN_POINT('',(0.105758450741541,-0.0715063073671779,0.005));
#2075=CARTESIAN_POINT('',(0.117469839852972,-0.0575575168915407,0.005));
#2076=CARTESIAN_POINT('',(0.117469839852972,-0.0575575168915407,0.003));
#2077=CARTESIAN_POINT('',(0.117469839852972,-0.0575575168915407,0.005));
#2078=CARTESIAN_POINT('',(0.188475293781607,-0.102036109390833,0.005));
#2079=CARTESIAN_POINT('',(0.188475293781607,-0.102036109390833,0.003));
#2080=CARTESIAN_POINT('',(0.188475293781607,-0.102036109390833,0.005));
#2081=CARTESIAN_POINT('',(0.178336492671504,-0.103987685636376,0.005));
#2082=CARTESIAN_POINT('',(0.178336492671504,-0.103987685636376,0.003));
#2083=CARTESIAN_POINT('',(0.178336492671504,-0.103987685636376,0.005));
#2084=CARTESIAN_POINT('',(0.104599180068133,-0.067850840211698,0.005));
#2085=CARTESIAN_POINT('',(0.104599180068133,-0.067850840211698,0.005));
#2086=CARTESIAN_POINT('',(0.14525,-0.0825,0.005));
#2087=CARTESIAN_POINT('',(0.18955,-0.10705,0.005));
#2088=CARTESIAN_POINT('',(0.191,-0.10705,0.005));
#2089=CARTESIAN_POINT('',(0.10095,-0.10705,0.005));
#2090=CARTESIAN_POINT('',(0.1024,-0.10705,0.005));
#2091=CARTESIAN_POINT('',(0.18955,-0.05795,0.005));
#2092=CARTESIAN_POINT('',(0.191,-0.05795,0.005));
#2093=CARTESIAN_POINT('',(0.10095,-0.05795,0.005));
#2094=CARTESIAN_POINT('',(0.1024,-0.05795,0.005));
#2095=CARTESIAN_POINT('',(0.196,-0.0825,0.005));
#2096=CARTESIAN_POINT('',(0.196,-0.0565,0.005));
#2097=CARTESIAN_POINT('',(0.196,-0.1085,0.005));
#2098=CARTESIAN_POINT('',(0.191,-0.0565,0.005));
#2099=CARTESIAN_POINT('',(0.191,-0.0515,0.005));
#2100=CARTESIAN_POINT('',(0.14525,-0.0515,0.005));
#2101=CARTESIAN_POINT('',(0.0995,-0.0515,0.005));
#2102=CARTESIAN_POINT('',(0.0995,-0.0565,0.005));
#2103=CARTESIAN_POINT('',(0.0945,-0.0565,0.005));
#2104=CARTESIAN_POINT('',(0.0945,-0.0825,0.005));
#2105=CARTESIAN_POINT('',(0.0945,-0.1085,0.005));
#2106=CARTESIAN_POINT('',(0.0995,-0.1085,0.005));
#2107=CARTESIAN_POINT('',(0.0995,-0.1135,0.005));
#2108=CARTESIAN_POINT('',(0.14525,-0.1135,0.005));
#2109=CARTESIAN_POINT('',(0.191,-0.1135,0.005));
#2110=CARTESIAN_POINT('',(0.191,-0.1085,0.005));
#2111=CARTESIAN_POINT('',(0.16996,-0.0964,0.005));
#2112=CARTESIAN_POINT('',(0.16996,-0.08466,0.005));
#2113=CARTESIAN_POINT('',(0.16996,-0.09646,0.005));
#2114=CARTESIAN_POINT('',(0.17198,-0.08466,0.005));
#2115=CARTESIAN_POINT('',(0.1821,-0.08466,0.005));
#2116=CARTESIAN_POINT('',(0.1821,-0.09056,0.005));
#2117=CARTESIAN_POINT('',(0.1821,-0.09646,0.005));
#2118=CARTESIAN_POINT('',(0.18005,-0.09646,0.005));
#2119=CARTESIAN_POINT('',(0.158148853,-0.085995,0.005));
#2120=CARTESIAN_POINT('',(0.162525,-0.085995,0.005));
#2121=CARTESIAN_POINT('',(0.148615,-0.085995,0.005));
#2122=CARTESIAN_POINT('',(0.162525,-0.09298,0.005));
#2123=CARTESIAN_POINT('',(0.162525,-0.099965,0.005));
#2124=CARTESIAN_POINT('',(0.15557,-0.099965,0.005));
#2125=CARTESIAN_POINT('',(0.148615,-0.099965,0.005));
#2126=CARTESIAN_POINT('',(0.148615,-0.099905,0.005));
#2127=CARTESIAN_POINT('',(0.128385,-0.0930999999999897,0.005));
#2128=CARTESIAN_POINT('',(0.128385,-0.086115,0.005));
#2129=CARTESIAN_POINT('',(0.128385,-0.100084999999979,0.005));
#2130=CARTESIAN_POINT('',(0.1321565975,-0.086115,0.005));
#2131=CARTESIAN_POINT('',(0.142295,-0.086115,0.005));
#2132=CARTESIAN_POINT('',(0.142295,-0.0930999999999897,0.005));
#2133=CARTESIAN_POINT('',(0.142295,-0.100084999999979,0.005));
#2134=CARTESIAN_POINT('',(0.13534,-0.100084999999979,0.005));
#2135=CARTESIAN_POINT('',(0.138035,-0.066276205,0.005));
#2136=CARTESIAN_POINT('',(0.138035,-0.065655,0.005));
#2137=CARTESIAN_POINT('',(0.138035,-0.079505,0.005));
#2138=CARTESIAN_POINT('',(0.13917325,-0.065655,0.005));
#2139=CARTESIAN_POINT('',(0.15190280941777,-0.0656550187067204,0.005));
#2140=CARTESIAN_POINT('',(0.151894046430588,-0.06633868,0.005));
#2141=CARTESIAN_POINT('',(0.151885,-0.0670223600000008,0.005));
#2142=CARTESIAN_POINT('',(0.151885,-0.07326368,0.005));
#2143=CARTESIAN_POINT('',(0.151885,-0.079505,0.005));
#2144=CARTESIAN_POINT('',(0.148637040999998,-0.079505,0.005));
#2145=CARTESIAN_POINT('',(0.16396,-0.0655349999999956,0.005));
#2146=CARTESIAN_POINT('',(0.17100498366829,-0.0655349999999956,0.005));
#2147=CARTESIAN_POINT('',(0.156974999999996,-0.0655349999999956,0.005));
#2148=CARTESIAN_POINT('',(0.171005,-0.0655649999999978,0.005));
#2149=CARTESIAN_POINT('',(0.171005,-0.079565,0.005));
#2150=CARTESIAN_POINT('',(0.16399,-0.079565,0.005));
#2151=CARTESIAN_POINT('',(0.156974999999996,-0.079565,0.005));
#2152=CARTESIAN_POINT('',(0.156974999999996,-0.0725499999999978,0.005));
#2153=CARTESIAN_POINT('',(0.12546,-0.065655,0.005));
#2154=CARTESIAN_POINT('',(0.132385,-0.065655,0.005));
#2155=CARTESIAN_POINT('',(0.118535,-0.065655,0.005));
#2156=CARTESIAN_POINT('',(0.132385,-0.07258,0.005));
#2157=CARTESIAN_POINT('',(0.132385,-0.079505,0.005));
#2158=CARTESIAN_POINT('',(0.12546,-0.079505,0.005));
#2159=CARTESIAN_POINT('',(0.118535,-0.079505,0.005));
#2160=CARTESIAN_POINT('',(0.118535,-0.07258,0.005));
#2161=CARTESIAN_POINT('',(0.11098,-0.08466,0.005));
#2162=CARTESIAN_POINT('',(0.1211,-0.08466,0.005));
#2163=CARTESIAN_POINT('',(0.10896,-0.08466,0.005));
#2164=CARTESIAN_POINT('',(0.1211,-0.09056,0.005));
#2165=CARTESIAN_POINT('',(0.1211,-0.09646,0.005));
#2166=CARTESIAN_POINT('',(0.11905,-0.09646,0.005));
#2167=CARTESIAN_POINT('',(0.10896,-0.09646,0.005));
#2168=CARTESIAN_POINT('',(0.10896,-0.09056,0.005));
#2169=CARTESIAN_POINT('',(0.14525,-0.0825,0.003));
#2170=CARTESIAN_POINT('',(0.180591866374016,-0.105105742812157,0.003));
#2171=CARTESIAN_POINT('',(0.182099866690241,-0.105105742812157,0.003));
#2172=CARTESIAN_POINT('',(0.14525,-0.0825,0.003));
#2173=CARTESIAN_POINT('',(0.189261764287948,-0.0999741926789283,0.003));
#2174=CARTESIAN_POINT('',(0.190794310580318,-0.0999741926789283,0.003));
#2175=CARTESIAN_POINT('',(0.14525,-0.0825,0.003));
#2176=CARTESIAN_POINT('',(0.115328691899776,-0.0588015913963318,0.003));
#2177=CARTESIAN_POINT('',(0.116853186746689,-0.0588015913963318,0.003));
#2178=CARTESIAN_POINT('',(0.118535,-0.07258,0.003));
#2179=CARTESIAN_POINT('',(0.118535,-0.07258,0.));
#2180=CARTESIAN_POINT('',(0.118535,-0.065655,0.));
#2181=CARTESIAN_POINT('',(0.118535,-0.079505,0.));
#2182=CARTESIAN_POINT('',(0.118535,-0.065655,0.003));
#2183=CARTESIAN_POINT('',(0.118535,-0.079505,0.003));
#2184=CARTESIAN_POINT('',(0.12546,-0.079505,0.003));
#2185=CARTESIAN_POINT('',(0.12546,-0.079505,0.));
#2186=CARTESIAN_POINT('',(0.132385,-0.079505,0.));
#2187=CARTESIAN_POINT('',(0.132385,-0.079505,0.003));
#2188=CARTESIAN_POINT('',(0.132385,-0.07258,0.003));
#2189=CARTESIAN_POINT('',(0.132385,-0.07258,0.));
#2190=CARTESIAN_POINT('',(0.132385,-0.065655,0.));
#2191=CARTESIAN_POINT('',(0.132385,-0.065655,0.003));
#2192=CARTESIAN_POINT('',(0.12546,-0.065655,0.003));
#2193=CARTESIAN_POINT('',(0.12546,-0.065655,0.));
#2194=CARTESIAN_POINT('',(0.156974999999996,-0.0725499999999978,0.003));
#2195=CARTESIAN_POINT('',(0.156974999999996,-0.0725499999999978,0.));
#2196=CARTESIAN_POINT('',(0.156974999999996,-0.0655349999999956,0.));
#2197=CARTESIAN_POINT('',(0.156974999999996,-0.079565,0.));
#2198=CARTESIAN_POINT('',(0.156974999999996,-0.0655349999999956,0.003));
#2199=CARTESIAN_POINT('',(0.156974999999996,-0.079565,0.003));
#2200=CARTESIAN_POINT('',(0.16399,-0.079565,0.003));
#2201=CARTESIAN_POINT('',(0.16399,-0.079565,0.));
#2202=CARTESIAN_POINT('',(0.171005,-0.079565,0.));
#2203=CARTESIAN_POINT('',(0.171005,-0.079565,0.003));
#2204=CARTESIAN_POINT('',(0.171005,-0.0655649999999978,0.003));
#2205=CARTESIAN_POINT('',(0.171005,-0.0655649999999978,0.));
#2206=CARTESIAN_POINT('',(0.171004869346321,-0.0655349999999956,0.));
#2207=CARTESIAN_POINT('',(0.17100498366829,-0.0655349999999956,0.005));
#2208=CARTESIAN_POINT('',(0.171004869346321,-0.0655349999999956,0.003));
#2209=CARTESIAN_POINT('',(0.171004869346321,-0.0655349999999956,0.003));
#2210=CARTESIAN_POINT('',(0.16396,-0.0655349999999956,0.003));
#2211=CARTESIAN_POINT('',(0.16396,-0.0655349999999956,0.));
#2212=CARTESIAN_POINT('',(0.148637040999998,-0.079505,0.003));
#2213=CARTESIAN_POINT('',(0.148637040999998,-0.079505,0.));
#2214=CARTESIAN_POINT('',(0.151885,-0.079505,0.));
#2215=CARTESIAN_POINT('',(0.138035,-0.079505,0.));
#2216=CARTESIAN_POINT('',(0.138035,-0.079505,0.003));
#2217=CARTESIAN_POINT('',(0.151885,-0.079505,0.003));
#2218=CARTESIAN_POINT('',(0.151885,-0.07326368,0.003));
#2219=CARTESIAN_POINT('',(0.151885,-0.07326368,0.));
#2220=CARTESIAN_POINT('',(0.151885,-0.0670223600000008,0.));
#2221=CARTESIAN_POINT('',(0.151885,-0.0670223600000008,0.003));
#2222=CARTESIAN_POINT('',(0.151894046430588,-0.06633868,0.003));
#2223=CARTESIAN_POINT('',(0.151894046430588,-0.06633868,0.));
#2224=CARTESIAN_POINT('',(0.151900830065816,-0.0656550598405543,0.));
#2225=CARTESIAN_POINT('',(0.15190280941777,-0.0656550187067204,0.005));
#2226=CARTESIAN_POINT('',(0.151900830318657,-0.0656550296719059,0.003));
#2227=CARTESIAN_POINT('',(0.151900830065816,-0.0656550598405543,0.003));
#2228=CARTESIAN_POINT('',(0.13917325,-0.065655,0.003));
#2229=CARTESIAN_POINT('',(0.13917325,-0.065655,0.));
#2230=CARTESIAN_POINT('',(0.138035,-0.065655,0.));
#2231=CARTESIAN_POINT('',(0.138035,-0.065655,0.003));
#2232=CARTESIAN_POINT('',(0.138035,-0.066276205,0.003));
#2233=CARTESIAN_POINT('',(0.138035,-0.066276205,0.));
#2234=CARTESIAN_POINT('',(0.13534,-0.100084999999979,0.003));
#2235=CARTESIAN_POINT('',(0.13534,-0.100084999999979,0.));
#2236=CARTESIAN_POINT('',(0.142295,-0.100084999999979,0.));
#2237=CARTESIAN_POINT('',(0.128385,-0.100084999999979,0.));
#2238=CARTESIAN_POINT('',(0.128385,-0.100084999999979,0.003));
#2239=CARTESIAN_POINT('',(0.142295,-0.100084999999979,0.003));
#2240=CARTESIAN_POINT('',(0.142295,-0.0930999999999897,0.003));
#2241=CARTESIAN_POINT('',(0.142295,-0.0930999999999897,0.));
#2242=CARTESIAN_POINT('',(0.142295,-0.086115,0.));
#2243=CARTESIAN_POINT('',(0.142295,-0.086115,0.003));
#2244=CARTESIAN_POINT('',(0.1321565975,-0.086115,0.003));
#2245=CARTESIAN_POINT('',(0.1321565975,-0.086115,0.));
#2246=CARTESIAN_POINT('',(0.128385,-0.086115,0.));
#2247=CARTESIAN_POINT('',(0.128385,-0.086115,0.003));
#2248=CARTESIAN_POINT('',(0.128385,-0.0930999999999897,0.003));
#2249=CARTESIAN_POINT('',(0.128385,-0.0930999999999897,0.));
#2250=CARTESIAN_POINT('',(0.148615,-0.099905,0.003));
#2251=CARTESIAN_POINT('',(0.148615,-0.099905,0.));
#2252=CARTESIAN_POINT('',(0.148615,-0.085995,0.));
#2253=CARTESIAN_POINT('',(0.148615,-0.099965,0.));
#2254=CARTESIAN_POINT('',(0.148615,-0.085995,0.003));
#2255=CARTESIAN_POINT('',(0.148615,-0.099965,0.003));
#2256=CARTESIAN_POINT('',(0.15557,-0.099965,0.003));
#2257=CARTESIAN_POINT('',(0.15557,-0.099965,0.));
#2258=CARTESIAN_POINT('',(0.162525,-0.099965,0.));
#2259=CARTESIAN_POINT('',(0.162525,-0.099965,0.003));
#2260=CARTESIAN_POINT('',(0.162525,-0.09298,0.003));
#2261=CARTESIAN_POINT('',(0.162525,-0.09298,0.));
#2262=CARTESIAN_POINT('',(0.162525,-0.085995,0.));
#2263=CARTESIAN_POINT('',(0.162525,-0.085995,0.003));
#2264=CARTESIAN_POINT('',(0.158148853,-0.085995,0.003));
#2265=CARTESIAN_POINT('',(0.158148853,-0.085995,0.));
#2266=CARTESIAN_POINT('',(0.18005,-0.09646,0.003));
#2267=CARTESIAN_POINT('',(0.18005,-0.09646,0.));
#2268=CARTESIAN_POINT('',(0.1821,-0.09646,0.));
#2269=CARTESIAN_POINT('',(0.16996,-0.09646,0.));
#2270=CARTESIAN_POINT('',(0.16996,-0.09646,0.003));
#2271=CARTESIAN_POINT('',(0.1821,-0.09646,0.003));
#2272=CARTESIAN_POINT('',(0.1821,-0.09056,0.003));
#2273=CARTESIAN_POINT('',(0.1821,-0.09056,0.));
#2274=CARTESIAN_POINT('',(0.1821,-0.08466,0.));
#2275=CARTESIAN_POINT('',(0.1821,-0.08466,0.003));
#2276=CARTESIAN_POINT('',(0.17198,-0.08466,0.003));
#2277=CARTESIAN_POINT('',(0.17198,-0.08466,0.));
#2278=CARTESIAN_POINT('',(0.16996,-0.08466,0.));
#2279=CARTESIAN_POINT('',(0.16996,-0.08466,0.003));
#2280=CARTESIAN_POINT('',(0.16996,-0.0964,0.003));
#2281=CARTESIAN_POINT('',(0.16996,-0.0964,0.));
#2282=CARTESIAN_POINT('',(0.11098,-0.08466,0.003));
#2283=CARTESIAN_POINT('',(0.11098,-0.08466,0.));
#2284=CARTESIAN_POINT('',(0.1211,-0.08466,0.));
#2285=CARTESIAN_POINT('',(0.10896,-0.08466,0.));
#2286=CARTESIAN_POINT('',(0.1211,-0.08466,0.003));
#2287=CARTESIAN_POINT('',(0.10896,-0.08466,0.003));
#2288=CARTESIAN_POINT('',(0.10896,-0.09056,0.003));
#2289=CARTESIAN_POINT('',(0.10896,-0.09056,0.));
#2290=CARTESIAN_POINT('',(0.10896,-0.09646,0.));
#2291=CARTESIAN_POINT('',(0.10896,-0.09646,0.003));
#2292=CARTESIAN_POINT('',(0.11905,-0.09646,0.003));
#2293=CARTESIAN_POINT('',(0.11905,-0.09646,0.));
#2294=CARTESIAN_POINT('',(0.1211,-0.09646,0.));
#2295=CARTESIAN_POINT('',(0.1211,-0.09646,0.003));
#2296=CARTESIAN_POINT('',(0.1211,-0.09056,0.003));
#2297=CARTESIAN_POINT('',(0.1211,-0.09056,0.));
#2298=CARTESIAN_POINT('',(0.196,-0.0825,0.003));
#2299=CARTESIAN_POINT('',(0.196,-0.0825,0.));
#2300=CARTESIAN_POINT('',(0.196,-0.0565,0.));
#2301=CARTESIAN_POINT('',(0.196,-0.1085,0.));
#2302=CARTESIAN_POINT('',(0.196,-0.0565,0.003));
#2303=CARTESIAN_POINT('',(0.196,-0.1085,0.));
#2304=CARTESIAN_POINT('',(0.14525,-0.1135,0.003));
#2305=CARTESIAN_POINT('',(0.14525,-0.1135,0.));
#2306=CARTESIAN_POINT('',(0.0995,-0.1135,0.));
#2307=CARTESIAN_POINT('',(0.191,-0.1135,0.));
#2308=CARTESIAN_POINT('',(0.191,-0.1135,0.005));
#2309=CARTESIAN_POINT('',(0.0995,-0.1135,0.003));
#2310=CARTESIAN_POINT('',(0.0945,-0.0825,0.003));
#2311=CARTESIAN_POINT('',(0.0945,-0.0565,0.));
#2312=CARTESIAN_POINT('',(0.0945,-0.0565,0.));
#2313=CARTESIAN_POINT('',(0.0945,-0.0825,0.));
#2314=CARTESIAN_POINT('',(0.0945,-0.1085,0.));
#2315=CARTESIAN_POINT('',(0.0945,-0.1085,0.003));
#2316=CARTESIAN_POINT('',(0.14525,-0.0515,0.003));
#2317=CARTESIAN_POINT('',(0.191,-0.0515,0.003));
#2318=CARTESIAN_POINT('',(0.191,-0.0515,0.));
#2319=CARTESIAN_POINT('',(0.14525,-0.0515,0.));
#2320=CARTESIAN_POINT('',(0.0995,-0.0515,0.));
#2321=CARTESIAN_POINT('',(0.0995,-0.0515,0.005));
#2322=CARTESIAN_POINT('',(0.10095,-0.05795,0.003));
#2323=CARTESIAN_POINT('',(0.10095,-0.05795,0.));
#2324=CARTESIAN_POINT('',(0.1024,-0.05795,0.));
#2325=CARTESIAN_POINT('',(0.18955,-0.05795,0.003));
#2326=CARTESIAN_POINT('',(0.18955,-0.05795,0.));
#2327=CARTESIAN_POINT('',(0.191,-0.05795,0.));
#2328=CARTESIAN_POINT('',(0.10095,-0.10705,0.003));
#2329=CARTESIAN_POINT('',(0.10095,-0.10705,0.));
#2330=CARTESIAN_POINT('',(0.1024,-0.10705,0.));
#2331=CARTESIAN_POINT('',(0.14525,-0.0825,0.));
#2332=CARTESIAN_POINT('',(0.18955,-0.10705,0.));
#2333=CARTESIAN_POINT('',(0.191,-0.10705,0.));
#2334=CARTESIAN_POINT('',(0.191,-0.0565,0.));
#2335=CARTESIAN_POINT('',(0.191,-0.1085,0.));
#2336=CARTESIAN_POINT('',(0.0995,-0.1085,0.));
#2337=CARTESIAN_POINT('',(0.0995,-0.0565,0.));
#2338=CARTESIAN_POINT('',(0.18955,-0.10705,0.003));
#2339=CARTESIAN_POINT('',(0.180591866374016,-0.105105742812157,0.005));
#2340=CARTESIAN_POINT('',(0.180591866374016,-0.105105742812157,0.005));
#2341=CARTESIAN_POINT('',(0.182099866690241,-0.105105742812157,0.005));
#2342=CARTESIAN_POINT('',(0.14525,-0.0825,0.005));
#2343=CARTESIAN_POINT('',(0.115328691899776,-0.0588015913963318,0.005));
#2344=CARTESIAN_POINT('',(0.115328691899776,-0.0588015913963318,0.005));
#2345=CARTESIAN_POINT('',(0.116853186746689,-0.0588015913963318,0.005));
#2346=CARTESIAN_POINT('',(0.14525,-0.0825,0.005));
#2347=CARTESIAN_POINT('',(0.189261764287948,-0.0999741926789283,0.005));
#2348=CARTESIAN_POINT('',(0.189261764287948,-0.0999741926789283,0.005));
#2349=CARTESIAN_POINT('',(0.190794310580318,-0.0999741926789283,0.005));
#2350=CARTESIAN_POINT('',(0.14525,-0.0825,0.005));
#2351=CARTESIAN_POINT('',(0.191,-0.0565,0.003));
#2352=CARTESIAN_POINT('',(0.0995,-0.0565,0.003));
#2353=CARTESIAN_POINT('',(0.191,-0.1085,0.003));
#2354=CARTESIAN_POINT('',(0.0995,-0.1085,0.003));
#2355=MECHANICAL_DESIGN_GEOMETRIC_PRESENTATION_REPRESENTATION('',(#1402),
#2356);
#2356=(
GEOMETRIC_REPRESENTATION_CONTEXT(3)
GLOBAL_UNCERTAINTY_ASSIGNED_CONTEXT((#2357))
GLOBAL_UNIT_ASSIGNED_CONTEXT((#2360,#2359,#2358))
REPRESENTATION_CONTEXT('Part 2','TOP_LEVEL_ASSEMBLY_PART')
);
#2357=UNCERTAINTY_MEASURE_WITH_UNIT(LENGTH_MEASURE(4.7843462406266E-6),
#2360,'DISTANCE_ACCURACY_VALUE','Maximum Tolerance applied to model');
#2358=(
NAMED_UNIT(*)
SI_UNIT($,.STERADIAN.)
SOLID_ANGLE_UNIT()
);
#2359=(
NAMED_UNIT(*)
PLANE_ANGLE_UNIT()
SI_UNIT($,.RADIAN.)
);
#2360=(
LENGTH_UNIT()
NAMED_UNIT(*)
SI_UNIT($,.METRE.)
);
#2361=PRODUCT_DEFINITION_SHAPE('','',#2362);
#2362=PRODUCT_DEFINITION('','',#2364,#2363);
#2363=PRODUCT_DEFINITION_CONTEXT('',#2370,'design');
#2364=PRODUCT_DEFINITION_FORMATION_WITH_SPECIFIED_SOURCE('','',#2366,
 .NOT_KNOWN.);
#2365=PRODUCT_RELATED_PRODUCT_CATEGORY('','',(#2366));
#2366=PRODUCT('Part 2','Part 2','Part 2',(#2368));
#2367=PRODUCT_CATEGORY('','');
#2368=PRODUCT_CONTEXT('',#2370,'mechanical');
#2369=APPLICATION_PROTOCOL_DEFINITION('international standard',
'ap242_managed_model_based_3d_engineering',2020,#2370);
#2370=APPLICATION_CONTEXT('managed model based 3d engineering');
ENDSEC;
END-ISO-10303-21;
